<?xml version="1.0" encoding="UTF-8"?>
<svg version="1.1" xmlns="http://www.w3.org/2000/svg" width="409" height="610">
<path d="M0 0 C6.41176758 3.30757293 10.63955044 7.69909228 13.15234375 14.51953125 C15.18831492 21.54012149 14.59029362 26.95776987 11.75390625 33.640625 C9.11684754 38.19355785 5.04110127 41.73140249 0.33984375 44.08203125 C0.00984375 51.67203125 -0.32015625 59.26203125 -0.66015625 67.08203125 C2.96984375 67.08203125 6.59984375 67.08203125 10.33984375 67.08203125 C14.33984375 69.08203125 14.33984375 69.08203125 15.5703125 72.63671875 C15.90615084 74.0729918 16.22456994 75.51342615 16.52734375 76.95703125 C16.69169922 77.67761719 16.85605469 78.39820313 17.02539062 79.140625 C17.47523224 81.11847113 17.9082034 83.10013332 18.33984375 85.08203125 C18.61115112 86.07420654 18.61115112 86.07420654 18.88793945 87.08642578 C19.56621928 90.08170364 19.39863544 93.02486314 19.33984375 96.08203125 C19.9121875 96.21222656 20.48453125 96.34242188 21.07421875 96.4765625 C26.89306647 98.03159939 31.77446587 100.46563646 36.27734375 104.45703125 C38.60129677 106.28398045 39.7317087 107.07101068 42.7109375 107.125 C45.33925291 106.62065866 47.79640821 105.91324437 50.33984375 105.08203125 C51.23703125 104.83324219 52.13421875 104.58445312 53.05859375 104.328125 C57.87356943 102.98194549 57.87356943 102.98194549 62.4453125 100.99609375 C64.33984375 100.08203125 64.33984375 100.08203125 67.27734375 99.95703125 C71.84203063 101.633855 73.15415733 104.99601192 75.33984375 109.08203125 C76.28647731 110.7366344 77.23342761 112.39106538 78.18603516 114.04223633 C79.22348795 115.84706937 80.24668365 117.65951459 81.26953125 119.47265625 C82.60696193 121.82926215 83.98721239 124.13247848 85.41015625 126.44140625 C86.04695313 127.4778125 86.68375 128.51421875 87.33984375 129.58203125 C88.20609375 130.95875 88.20609375 130.95875 89.08984375 132.36328125 C90.59824752 135.64405944 90.94092491 137.51311185 90.33984375 141.08203125 C86.48462753 145.73076192 81.48374155 149.25479971 76.765625 152.99609375 C74.1799852 155.03016906 74.1799852 155.03016906 72.33984375 158.08203125 C71.67984375 158.08203125 71.01984375 158.08203125 70.33984375 158.08203125 C70.66984375 160.06203125 70.99984375 162.04203125 71.33984375 164.08203125 C78.207528 164.33597192 85.07400034 164.51084906 91.9453125 164.63134766 C94.28138459 164.68158228 96.61714309 164.74978669 98.95214844 164.83642578 C102.31393656 164.95802237 105.67156776 165.01449007 109.03515625 165.05859375 C110.59642746 165.13601303 110.59642746 165.13601303 112.1892395 165.21499634 C115.22287482 165.21733309 117.48821849 165.13072301 120.33984375 164.08203125 C122.47261311 161.59135817 123.83775626 159.19910323 125.22946167 156.23519897 C125.59588776 155.52465363 125.96231384 154.81410828 126.33984375 154.08203125 C126.99984375 154.08203125 127.65984375 154.08203125 128.33984375 154.08203125 C127.93765625 152.53515625 127.93765625 152.53515625 127.52734375 150.95703125 C126.85842082 148.32285888 126.26605953 145.70040557 125.75 143.03125 C121.43530095 120.89607795 112.01276849 101.70663692 97.33984375 84.51953125 C95.33984375 82.08203125 95.33984375 82.08203125 95.33984375 80.08203125 C94.34984375 79.75203125 93.35984375 79.42203125 92.33984375 79.08203125 C90.65252098 77.09942699 88.98618318 75.09879705 87.33984375 73.08203125 C86.34984375 72.42203125 85.35984375 71.76203125 84.33984375 71.08203125 C84.33984375 70.42203125 84.33984375 69.76203125 84.33984375 69.08203125 C83.79714844 68.84097656 83.25445312 68.59992188 82.6953125 68.3515625 C79.76043012 66.76974364 77.28387487 64.81627768 74.65234375 62.76953125 C69.08484641 58.50643841 63.3110808 55.15822185 57.11328125 51.91796875 C53.45607842 49.85663625 51.57090927 48.4461345 49.27734375 44.83203125 C48.13846164 40.27650282 47.92186026 36.58919306 49.33984375 32.08203125 C51.83984375 29.08203125 51.83984375 29.08203125 54.33984375 27.08203125 C54.66984375 26.75203125 54.99984375 26.42203125 55.33984375 26.08203125 C62.75099959 24.36430541 68.14844281 26.14332558 74.47290039 29.92089844 C78.14258959 32.24123654 81.76000582 34.62565052 85.33984375 37.08203125 C86.32984375 37.74203125 87.31984375 38.40203125 88.33984375 39.08203125 C88.33984375 39.74203125 88.33984375 40.40203125 88.33984375 41.08203125 C89.17515625 41.17484375 89.17515625 41.17484375 90.02734375 41.26953125 C92.61525856 42.17879862 93.88341251 43.46124159 95.734375 45.4375 C97.7810313 47.53395329 99.96024232 49.4508456 102.15234375 51.39453125 C108.99404879 57.53373979 115.13174754 63.49309106 120.33984375 71.08203125 C120.78457031 71.50613281 121.22929687 71.93023437 121.6875 72.3671875 C137.33718473 88.60882248 145.9974926 112.73051282 151.40234375 134.08203125 C151.66664185 135.1184375 151.66664185 135.1184375 151.9362793 136.17578125 C152.89352911 140.01024791 153.60880129 143.79588878 154.15234375 147.70703125 C154.99551642 152.28750981 156.95755378 153.71443096 160.58203125 156.40625 C164.69661581 160.32882062 166.12674122 166.16818028 166.53125 171.69921875 C166.15009426 179.11443047 163.20436022 185.29096392 157.90234375 190.45703125 C152.32795019 193.99201253 147.14457174 196.76308978 140.328125 195.796875 C133.35375364 194.21601749 128.11700596 191.52268822 123.33984375 186.08203125 C122.67984375 184.76203125 122.01984375 183.44203125 121.33984375 182.08203125 C105.16984375 182.08203125 88.99984375 182.08203125 72.33984375 182.08203125 C71.67984375 183.40203125 71.01984375 184.72203125 70.33984375 186.08203125 C70.99984375 186.08203125 71.65984375 186.08203125 72.33984375 186.08203125 C73.52131331 187.22974454 74.69657245 188.38487338 75.83203125 189.578125 C78.07036525 191.81066021 80.52719555 193.76434752 82.984375 195.75 C83.43167969 196.18957031 83.87898438 196.62914062 84.33984375 197.08203125 C84.33984375 197.74203125 84.33984375 198.40203125 84.33984375 199.08203125 C85.65984375 199.74203125 86.97984375 200.40203125 88.33984375 201.08203125 C88.33984375 201.74203125 88.33984375 202.40203125 88.33984375 203.08203125 C88.99984375 203.08203125 89.65984375 203.08203125 90.33984375 203.08203125 C91.00627228 209.02357008 88.81438981 212.57931074 85.90234375 217.51953125 C85.45511963 218.29997803 85.00789551 219.0804248 84.54711914 219.88452148 C83.16010114 222.29306446 81.75328739 224.68891478 80.33984375 227.08203125 C79.89737305 227.83516602 79.45490234 228.58830078 78.99902344 229.36425781 C71.75603693 241.66583807 71.75603693 241.66583807 70.33984375 243.08203125 C62.26605336 243.64326792 56.15210027 241.64505326 48.71289062 238.6875 C46.15116058 237.79869621 44.05321618 237.1744562 41.33984375 237.08203125 C38.21521546 238.59740591 35.90975186 240.78009997 33.33984375 243.08203125 C31.25011505 244.27126796 29.127517 245.40627227 26.96484375 246.45703125 C25.94648438 246.95976562 24.928125 247.4625 23.87890625 247.98046875 C21.33984375 249.08203125 21.33984375 249.08203125 19.33984375 249.08203125 C19.38882813 250.20867187 19.4378125 251.3353125 19.48828125 252.49609375 C19.48611438 257.41272085 18.34076509 261.76498489 16.96484375 266.45703125 C16.743125 267.26269531 16.52140625 268.06835938 16.29296875 268.8984375 C14.60870719 274.81316781 14.60870719 274.81316781 12.33984375 277.08203125 C9.51953125 277.49609375 9.51953125 277.49609375 6.21484375 277.70703125 C4.57128906 277.81917969 4.57128906 277.81917969 2.89453125 277.93359375 C2.05148438 277.98257812 1.2084375 278.0315625 0.33984375 278.08203125 C0.25301085 281.54020725 0.19951093 284.99810469 0.15234375 288.45703125 C0.12720703 289.441875 0.10207031 290.42671875 0.07617188 291.44140625 C0.06166992 292.85292969 0.06166992 292.85292969 0.046875 294.29296875 C0.03116455 295.16228027 0.0154541 296.0315918 -0.00073242 296.92724609 C0.11165771 297.6383252 0.22404785 298.3494043 0.33984375 299.08203125 C1.32984375 299.74203125 2.31984375 300.40203125 3.33984375 301.08203125 C3.33984375 301.74203125 3.33984375 302.40203125 3.33984375 303.08203125 C3.93796875 303.16453125 4.53609375 303.24703125 5.15234375 303.33203125 C7.33984375 304.08203125 7.33984375 304.08203125 8.71875 306.12890625 C10.12567115 308.25753296 10.12567115 308.25753296 12.22265625 308.39453125 C14.94591124 308.01498352 17.63717232 307.59352584 20.33984375 307.08203125 C21.28996338 306.90341553 21.28996338 306.90341553 22.25927734 306.72119141 C32.32528375 304.7633162 41.17813889 301.7978036 50.33984375 297.08203125 C51.06300781 296.74300781 51.78617188 296.40398437 52.53125 296.0546875 C65.70997996 289.85136612 80.3183181 280.60953625 89.33984375 269.08203125 C89.99984375 269.08203125 90.65984375 269.08203125 91.33984375 269.08203125 C91.99984375 267.76203125 92.65984375 266.44203125 93.33984375 265.08203125 C93.99984375 265.08203125 94.65984375 265.08203125 95.33984375 265.08203125 C95.5821875 264.53804688 95.82453125 263.9940625 96.07421875 263.43359375 C97.63990492 260.52451019 99.56494032 258.06736595 101.58984375 255.45703125 C104.53239112 251.65020227 107.11764249 247.82414874 109.40234375 243.58203125 C111.76515945 239.52869271 113.94606263 237.32083877 118.33203125 235.578125 C121.79036119 234.72363492 123.95643459 234.97473371 127.33984375 236.08203125 C131.09277963 238.59897028 133.89035232 240.73355696 135.33984375 245.08203125 C136.59837205 255.36001237 129.69673223 263.4033128 123.75 271.1171875 C120.75067858 274.80679035 117.61851841 278.34487875 114.3828125 281.828125 C112.97473995 283.38158171 111.62525292 284.98949223 110.328125 286.63671875 C108.4618644 288.93196263 106.56859509 290.83243292 104.33984375 292.76953125 C103.67984375 293.35089844 103.01984375 293.93226563 102.33984375 294.53125 C100.41167511 296.02633389 98.5563792 297.07766363 96.33984375 298.08203125 C96.33984375 298.74203125 96.33984375 299.40203125 96.33984375 300.08203125 C95.70046875 300.18515625 95.06109375 300.28828125 94.40234375 300.39453125 C93.38140625 300.73484375 93.38140625 300.73484375 92.33984375 301.08203125 C92.00984375 302.07203125 91.67984375 303.06203125 91.33984375 304.08203125 C90.34984375 304.08203125 89.35984375 304.08203125 88.33984375 304.08203125 C88.33984375 304.74203125 88.33984375 305.40203125 88.33984375 306.08203125 C86.73852539 307.34716797 86.73852539 307.34716797 84.5 308.76171875 C83.68337891 309.27863281 82.86675781 309.79554688 82.02539062 310.328125 C80.72698242 311.13443359 80.72698242 311.13443359 79.40234375 311.95703125 C78.57154297 312.48683594 77.74074219 313.01664062 76.88476562 313.5625 C71.53786486 316.91627589 66.16317549 319.6630774 60.33984375 322.08203125 C59.14359375 322.60925781 57.94734375 323.13648438 56.71484375 323.6796875 C43.22645532 329.53402276 28.93099328 334.81568269 14.08984375 335.51953125 C10.2582737 335.75683393 9.57815965 335.88516159 6.46484375 338.45703125 C5.76359375 339.32328125 5.06234375 340.18953125 4.33984375 341.08203125 C-1.66182952 345.18073495 -7.50153097 345.8678653 -14.66015625 345.08203125 C-19.58247397 343.43557142 -23.87928382 340.62659915 -27.66015625 337.08203125 C-27.66015625 336.42203125 -27.66015625 335.76203125 -27.66015625 335.08203125 C-28.32015625 335.08203125 -28.98015625 335.08203125 -29.66015625 335.08203125 C-33.3877006 328.52827499 -33.37136748 320.31164512 -31.44921875 313.1484375 C-29.11823362 307.04402596 -25.29922963 303.2148498 -19.66015625 300.08203125 C-19.00015625 300.08203125 -18.34015625 300.08203125 -17.66015625 300.08203125 C-17.63298801 297.54029148 -17.61323656 294.9988471 -17.59765625 292.45703125 C-17.58927734 291.74417969 -17.58089844 291.03132813 -17.57226562 290.296875 C-17.55305329 286.10858687 -17.83342355 282.20918505 -18.66015625 278.08203125 C-22.62015625 277.75203125 -26.58015625 277.42203125 -30.66015625 277.08203125 C-33.55100675 269.5921004 -35.71174767 262.21240421 -37.1953125 254.31640625 C-37.64722212 251.92688335 -37.64722212 251.92688335 -38.66015625 249.08203125 C-40.85837375 247.83853556 -42.99506492 246.75097432 -45.28515625 245.70703125 C-46.50949583 245.14315631 -47.73086899 244.57279662 -48.94921875 243.99609375 C-49.56772705 243.70460449 -50.18623535 243.41311523 -50.82348633 243.11279297 C-52.7999358 242.00358525 -54.31600531 240.67537337 -56.0234375 239.19140625 C-58.20866789 237.57732956 -59.15483162 237.04855653 -61.89355469 237.22998047 C-64.41782057 237.90555346 -66.79197896 238.74850808 -69.22265625 239.70703125 C-70.86858084 240.30671918 -72.51569432 240.90315555 -74.1640625 241.49609375 C-74.94023926 241.77614258 -75.71641602 242.05619141 -76.51611328 242.34472656 C-80.5188554 243.72121041 -83.26176734 244.62850418 -87.2890625 243.0546875 C-90.23046446 240.60755737 -91.85030441 237.85441344 -93.59765625 234.51953125 C-94.28942137 233.25339046 -94.98213593 231.98776796 -95.67578125 230.72265625 C-96.01158203 230.10197266 -96.34738281 229.48128906 -96.69335938 228.84179688 C-98.01130404 226.44287134 -99.42231616 224.10591346 -100.84765625 221.76953125 C-101.316875 220.98578125 -101.78609375 220.20203125 -102.26953125 219.39453125 C-103.22611044 217.80381529 -104.19564113 216.22083907 -105.17578125 214.64453125 C-105.645 213.86078125 -106.11421875 213.07703125 -106.59765625 212.26953125 C-107.01917969 211.58246094 -107.44070312 210.89539063 -107.875 210.1875 C-108.91728577 207.39251477 -108.60075781 205.89039875 -107.66015625 203.08203125 C-106.3125 201.30859375 -106.3125 201.30859375 -104.59765625 199.70703125 C-103.97246094 199.11921875 -103.34726563 198.53140625 -102.703125 197.92578125 C-102.02894531 197.31734375 -101.35476562 196.70890625 -100.66015625 196.08203125 C-99.95503906 195.43234375 -99.24992187 194.78265625 -98.5234375 194.11328125 C-93.11316275 189.23303342 -93.11316275 189.23303342 -89.66015625 188.08203125 C-89.33015625 185.77203125 -89.00015625 183.46203125 -88.66015625 181.08203125 C-105.49015625 181.08203125 -122.32015625 181.08203125 -139.66015625 181.08203125 C-140.32015625 182.73203125 -140.98015625 184.38203125 -141.66015625 186.08203125 C-142.38203125 186.63890625 -143.10390625 187.19578125 -143.84765625 187.76953125 C-145.92145165 190.41540814 -145.93489404 190.91628283 -145.72265625 194.14453125 C-142.80012823 213.95927121 -135.738131 231.80846475 -124.73193359 248.42993164 C-123.81778441 249.83905409 -122.96455427 251.28738736 -122.125 252.7421875 C-120.45499167 255.40974748 -118.54533362 257.58391098 -116.41015625 259.89453125 C-113.62625588 262.91526424 -110.94014108 265.95966045 -108.34765625 269.14453125 C-104.51523225 273.60358381 -99.81466248 276.83579005 -95.0390625 280.19921875 C-94.25402344 280.82054687 -93.46898438 281.441875 -92.66015625 282.08203125 C-92.66015625 282.74203125 -92.66015625 283.40203125 -92.66015625 284.08203125 C-91.63921875 284.42234375 -91.63921875 284.42234375 -90.59765625 284.76953125 C-87.6234237 286.09844367 -85.22511533 287.7846494 -82.625 289.73046875 C-80.48642277 291.20153778 -78.28477953 292.34258837 -75.97265625 293.51953125 C-71.90229172 295.74540351 -69.71282891 297.80562988 -67.66015625 302.08203125 C-66.49973122 306.33692304 -66.51267031 308.59041145 -67.78515625 312.83203125 C-69.88268238 316.4677432 -70.73480805 317.66222446 -74.66015625 319.08203125 C-82.39358479 320.28741678 -87.31165496 318.32817404 -93.66015625 314.08203125 C-94.56378906 313.51226562 -95.46742187 312.9425 -96.3984375 312.35546875 C-107.23218722 305.38169078 -117.3852984 297.59790583 -126.53515625 288.51953125 C-127.05335937 288.00680664 -127.5715625 287.49408203 -128.10546875 286.96582031 C-131.66015625 283.34033203 -131.66015625 283.34033203 -131.66015625 281.08203125 C-132.26375977 280.82333252 -132.86736328 280.56463379 -133.48925781 280.2980957 C-135.86337015 278.96819764 -136.8520693 277.84091907 -138.39453125 275.625 C-138.88219971 274.93132324 -139.36986816 274.23764648 -139.87231445 273.52294922 C-140.37980225 272.77932129 -140.88729004 272.03569336 -141.41015625 271.26953125 C-141.94020264 270.5027002 -142.47024902 269.73586914 -143.01635742 268.94580078 C-152.39577233 255.27739254 -161.07992314 241.14881754 -165.66015625 225.08203125 C-165.84819824 224.45458008 -166.03624023 223.82712891 -166.22998047 223.18066406 C-168.6128323 215.22579913 -170.74398415 207.54492403 -171.59765625 199.26953125 C-172.17158152 193.94666287 -172.17158152 193.94666287 -175.53515625 190.08203125 C-176.56640625 189.42203125 -177.59765625 188.76203125 -178.66015625 188.08203125 C-183.31659871 182.64951505 -184.92580024 176.00529987 -184.54296875 168.91015625 C-183.28072953 162.47016023 -179.65168181 156.67549091 -174.72265625 152.40234375 C-168.46385966 148.32952391 -161.92832711 147.97424313 -154.66015625 149.08203125 C-148.3123112 151.22951385 -143.22103068 155.39734957 -139.66015625 161.08203125 C-139.33015625 162.40203125 -139.00015625 163.72203125 -138.66015625 165.08203125 C-122.49015625 164.75203125 -106.32015625 164.42203125 -89.66015625 164.08203125 C-89.11179929 158.53835278 -89.11179929 158.53835278 -90.91015625 156.17578125 C-91.48765625 155.64984375 -92.06515625 155.12390625 -92.66015625 154.58203125 C-93.294375 153.999375 -93.92859375 153.41671875 -94.58203125 152.81640625 C-97.26465642 150.57752359 -100.01708309 148.46789934 -102.86328125 146.44140625 C-105.67571656 144.31373779 -107.39099157 142.78858855 -108.66015625 139.45703125 C-108.66015625 135.95305466 -108.32610978 135.08360812 -106.63671875 132.1796875 C-106.17942383 131.38755859 -105.72212891 130.59542969 -105.25097656 129.77929688 C-104.72600586 128.88919922 -104.20103516 127.99910156 -103.66015625 127.08203125 C-103.07588867 126.07849609 -102.49162109 125.07496094 -101.88964844 124.04101562 C-99.9539187 120.73260493 -97.99683084 117.43761585 -96.03515625 114.14453125 C-95.36742188 113.00951172 -94.6996875 111.87449219 -94.01171875 110.70507812 C-93.3671875 109.62419922 -92.72265625 108.54332031 -92.05859375 107.4296875 C-91.47770996 106.45008057 -90.89682617 105.47047363 -90.29833984 104.46118164 C-88.66015625 102.08203125 -88.66015625 102.08203125 -85.66015625 100.08203125 C-81.06188288 100.44676681 -77.06997987 101.94062889 -72.78515625 103.58203125 C-65.39755454 106.31329241 -65.39755454 106.31329241 -57.66015625 107.08203125 C-55.09624418 105.46592041 -55.09624418 105.46592041 -52.66015625 103.08203125 C-51.2040153 102.16922647 -49.72213825 101.29674117 -48.22265625 100.45703125 C-47.50207031 100.05226563 -46.78148437 99.6475 -46.0390625 99.23046875 C-43.31235871 97.91412899 -40.54652156 96.98739476 -37.66015625 96.08203125 C-37.51320312 94.91800781 -37.51320312 94.91800781 -37.36328125 93.73046875 C-36.21844085 85.45998377 -34.95620019 76.80511459 -31.66015625 69.08203125 C-28.56924356 67.01638216 -26.07126614 66.86068625 -22.41015625 66.95703125 C-21.518125 66.97507812 -20.62609375 66.993125 -19.70703125 67.01171875 C-19.0315625 67.03492188 -18.35609375 67.058125 -17.66015625 67.08203125 C-17.79863263 63.45671059 -17.94718268 59.83187221 -18.09765625 56.20703125 C-18.13697266 55.17449219 -18.17628906 54.14195312 -18.21679688 53.078125 C-18.27963867 51.59892578 -18.27963867 51.59892578 -18.34375 50.08984375 C-18.38040771 49.1786377 -18.41706543 48.26743164 -18.45483398 47.32861328 C-18.5259269 45.04719644 -18.5259269 45.04719644 -19.66015625 43.08203125 C-20.42328125 42.62828125 -21.18640625 42.17453125 -21.97265625 41.70703125 C-24.66015625 40.08203125 -24.66015625 40.08203125 -26.46875 37.94140625 C-28.5286941 35.7912794 -28.5286941 35.7912794 -31.39453125 36.05859375 C-32.3896875 36.27257812 -33.38484375 36.4865625 -34.41015625 36.70703125 C-35.395 36.90554687 -36.37984375 37.1040625 -37.39453125 37.30859375 C-38.4721875 37.56382812 -39.54984375 37.8190625 -40.66015625 38.08203125 C-41.90023437 38.365625 -43.1403125 38.64921875 -44.41796875 38.94140625 C-49.33299695 40.18771697 -54.04784966 41.91057096 -58.78515625 43.70703125 C-59.70296875 44.05459473 -60.62078125 44.4021582 -61.56640625 44.76025391 C-68.39305323 47.42183353 -74.61445202 50.58332595 -80.84765625 54.41796875 C-83.40734804 55.93245306 -85.87120083 57.0669335 -88.66015625 58.08203125 C-88.66015625 58.74203125 -88.66015625 59.40203125 -88.66015625 60.08203125 C-90.07572863 61.06641145 -91.49793961 62.04274941 -92.95361328 62.96679688 C-100.81526329 68.10442452 -107.86142095 74.72847022 -113.66015625 82.08203125 C-114.86478516 83.58443359 -114.86478516 83.58443359 -116.09375 85.1171875 C-120.64892069 90.87140106 -124.82821358 96.62880889 -128.40625 103.05859375 C-130.46496869 106.38076285 -131.91731193 107.83441648 -135.66015625 109.08203125 C-141.18371634 109.44423191 -145.02149829 109.45560067 -149.66015625 106.08203125 C-152.16131649 102.9482246 -153.683168 99.93940813 -153.6328125 95.875 C-152.55657679 90.02232772 -149.76540489 85.09546704 -146.66015625 80.08203125 C-146.00015625 80.08203125 -145.34015625 80.08203125 -144.66015625 80.08203125 C-144.4384375 79.40140625 -144.21671875 78.72078125 -143.98828125 78.01953125 C-142.28492575 74.25210967 -139.9763386 71.30179891 -137.41015625 68.08203125 C-136.94480469 67.47875 -136.47945312 66.87546875 -136 66.25390625 C-132.87758615 62.29712837 -129.57635988 59.24553836 -125.66015625 56.08203125 C-124.15016982 54.40040175 -124.15016982 54.40040175 -123.03515625 52.83203125 C-120.57353039 49.98172762 -120.07517164 49.78858616 -116.66015625 49.08203125 C-116.3647998 48.47141846 -116.06944336 47.86080566 -115.76513672 47.23168945 C-114.51420196 44.79808791 -113.39345856 43.86850788 -111.16796875 42.3125 C-110.46857178 41.81943359 -109.7691748 41.32636719 -109.04858398 40.81835938 C-108.30165283 40.30724609 -107.55472168 39.79613281 -106.78515625 39.26953125 C-106.02082275 38.73908203 -105.25648926 38.20863281 -104.46899414 37.66210938 C-82.87949579 22.82994065 -56.61178087 9.8449102 -29.8828125 9.55078125 C-29.14933594 9.39609375 -28.41585937 9.24140625 -27.66015625 9.08203125 C-26.2871731 7.14039831 -26.2871731 7.14039831 -25.66015625 5.08203125 C-25.00015625 5.08203125 -24.34015625 5.08203125 -23.66015625 5.08203125 C-23.66015625 4.42203125 -23.66015625 3.76203125 -23.66015625 3.08203125 C-16.29344444 -1.5402193 -8.40777531 -2.90136153 0 0 Z " fill="#0C374C" transform="translate(212.66015625,139.91796875)"/>
<path d="M0 0 C8.16903061 1.62044166 15.04548772 7.10912466 21.8203125 11.7578125 C22.8103125 12.4178125 23.8003125 13.0778125 24.8203125 13.7578125 C24.8203125 14.4178125 24.8203125 15.0778125 24.8203125 15.7578125 C25.3771875 15.8196875 25.9340625 15.8815625 26.5078125 15.9453125 C29.09572731 16.85457987 30.36388126 18.13702284 32.21484375 20.11328125 C34.26150005 22.20973454 36.44071107 24.12662685 38.6328125 26.0703125 C45.47451754 32.20952104 51.61221629 38.16887231 56.8203125 45.7578125 C57.26503906 46.18191406 57.70976562 46.60601562 58.16796875 47.04296875 C73.81765348 63.28460373 82.47796135 87.40629407 87.8828125 108.7578125 C88.05901123 109.44875 88.23520996 110.1396875 88.41674805 110.8515625 C89.37399786 114.68602916 90.08927004 118.47167003 90.6328125 122.3828125 C91.47598517 126.96329106 93.43802253 128.39021221 97.0625 131.08203125 C101.17708456 135.00460187 102.60720997 140.84396153 103.01171875 146.375 C102.63056301 153.79021172 99.68482897 159.96674517 94.3828125 165.1328125 C88.80841894 168.66779378 83.62504049 171.43887103 76.80859375 170.47265625 C69.83422239 168.89179874 64.59747471 166.19846947 59.8203125 160.7578125 C59.1242509 159.43958624 58.45118385 158.10845071 57.8203125 156.7578125 C50.87858862 156.73251877 43.93687656 156.71496946 36.99511719 156.70288086 C34.63215694 156.69784291 32.26919982 156.69101242 29.90625 156.68237305 C26.51561715 156.67028396 23.12502541 156.66457891 19.734375 156.66015625 C18.67288239 156.65499496 17.61138977 156.64983368 16.51773071 156.64451599 C15.53686493 156.64444046 14.55599915 156.64436493 13.54541016 156.64428711 C12.67937164 156.6420665 11.81333313 156.63984589 10.92105103 156.63755798 C8.7619159 156.62227504 8.7619159 156.62227504 6.8203125 157.7578125 C6.8203125 150.8278125 6.8203125 143.8978125 6.8203125 136.7578125 C7.3153125 137.7478125 7.3153125 137.7478125 7.8203125 138.7578125 C14.68799675 139.01175317 21.55446909 139.18663031 28.42578125 139.30712891 C30.76185334 139.35736353 33.09761184 139.42556794 35.43261719 139.51220703 C38.79440531 139.63380362 42.15203651 139.69027132 45.515625 139.734375 C47.07689621 139.81179428 47.07689621 139.81179428 48.66970825 139.89077759 C51.70334357 139.89311434 53.96868724 139.80650426 56.8203125 138.7578125 C58.95308186 136.26713942 60.31822501 133.87488448 61.70993042 130.91098022 C62.07635651 130.20043488 62.44278259 129.48988953 62.8203125 128.7578125 C63.4803125 128.7578125 64.1403125 128.7578125 64.8203125 128.7578125 C64.418125 127.2109375 64.418125 127.2109375 64.0078125 125.6328125 C63.33888957 122.99864013 62.74652828 120.37618682 62.23046875 117.70703125 C57.9157697 95.5718592 48.49323724 76.38241817 33.8203125 59.1953125 C31.8203125 56.7578125 31.8203125 56.7578125 31.8203125 54.7578125 C30.8303125 54.4278125 29.8403125 54.0978125 28.8203125 53.7578125 C27.13298973 51.77520824 25.46665193 49.7745783 23.8203125 47.7578125 C22.8303125 47.0978125 21.8403125 46.4378125 20.8203125 45.7578125 C20.8203125 45.0978125 20.8203125 44.4378125 20.8203125 43.7578125 C20.27761719 43.51675781 19.73492187 43.27570313 19.17578125 43.02734375 C16.24089887 41.44552489 13.76434362 39.49205893 11.1328125 37.4453125 C5.56531516 33.18221966 -0.20845045 29.8340031 -6.40625 26.59375 C-10.06345283 24.5324175 -11.94862198 23.12191575 -14.2421875 19.5078125 C-15.38106961 14.95228407 -15.59767099 11.26497431 -14.1796875 6.7578125 C-11.6796875 3.7578125 -11.6796875 3.7578125 -9.1796875 1.7578125 C-6.90125091 -0.52062409 -3.00601785 0.00724342 0 0 Z " fill="#0D759F" transform="translate(276.1796875,165.2421875)"/>
<path d="M0 0 C5.48988377 3.55881968 9.46290849 7.53913396 11.0625 13.9375 C27.5625 13.6075 44.0625 13.2775 61.0625 12.9375 C61.0625 18.5475 61.0625 24.1575 61.0625 29.9375 C44.2325 29.9375 27.4025 29.9375 10.0625 29.9375 C9.4025 31.5875 8.7425 33.2375 8.0625 34.9375 C6.9796875 35.7728125 6.9796875 35.7728125 5.875 36.625 C3.8012046 39.27087689 3.78776221 39.77175158 4 43 C6.92252802 62.81473996 13.98452525 80.6639335 24.99072266 97.28540039 C25.90487184 98.69452284 26.75810198 100.14285611 27.59765625 101.59765625 C29.26766458 104.26521623 31.17732263 106.43937973 33.3125 108.75 C36.09640037 111.77073299 38.78251517 114.8151292 41.375 118 C45.207424 122.45905256 49.90799377 125.6912588 54.68359375 129.0546875 C55.46863281 129.67601562 56.25367187 130.29734375 57.0625 130.9375 C57.0625 131.5975 57.0625 132.2575 57.0625 132.9375 C58.0834375 133.2778125 58.0834375 133.2778125 59.125 133.625 C62.09923255 134.95391242 64.49754092 136.64011815 67.09765625 138.5859375 C69.23623348 140.05700653 71.43787672 141.19805712 73.75 142.375 C77.82036453 144.60087226 80.00982734 146.66109863 82.0625 150.9375 C83.22292503 155.19239179 83.20998594 157.4458802 81.9375 161.6875 C79.83997387 165.32321195 78.9878482 166.51769321 75.0625 167.9375 C67.32907146 169.14288553 62.41100129 167.18364279 56.0625 162.9375 C55.15886719 162.36773437 54.25523438 161.79796875 53.32421875 161.2109375 C42.49046903 154.23715953 32.33735785 146.45337458 23.1875 137.375 C22.66929688 136.86227539 22.15109375 136.34955078 21.6171875 135.82128906 C18.0625 132.19580078 18.0625 132.19580078 18.0625 129.9375 C17.45889648 129.67880127 16.85529297 129.42010254 16.23339844 129.15356445 C13.8592861 127.82366639 12.87058695 126.69638782 11.328125 124.48046875 C10.59662231 123.43995361 10.59662231 123.43995361 9.8503418 122.37841797 C9.342854 121.63479004 8.83536621 120.89116211 8.3125 120.125 C7.78245361 119.35816895 7.25240723 118.59133789 6.70629883 117.80126953 C-2.67311608 104.13286129 -11.35726689 90.00428629 -15.9375 73.9375 C-16.12554199 73.31004883 -16.31358398 72.68259766 -16.50732422 72.03613281 C-18.89017605 64.08126788 -21.0213279 56.40039278 -21.875 48.125 C-22.44892527 42.80213162 -22.44892527 42.80213162 -25.8125 38.9375 C-26.84375 38.2775 -27.875 37.6175 -28.9375 36.9375 C-33.59394246 31.5049838 -35.20314399 24.86076862 -34.8203125 17.765625 C-33.55807328 11.32562898 -29.92902556 5.53095966 -25 1.2578125 C-17.50842772 -3.61721799 -7.97654014 -4.04880031 0 0 Z " fill="#0D759F" transform="translate(62.9375,291.0625)"/>
<path d="M0 0 C6.41176758 3.30757293 10.63955044 7.69909228 13.15234375 14.51953125 C15.18831492 21.54012149 14.59029362 26.95776987 11.75390625 33.640625 C9.11684754 38.19355785 5.04110127 41.73140249 0.33984375 44.08203125 C0.00984375 51.67203125 -0.32015625 59.26203125 -0.66015625 67.08203125 C-3.66329373 68.58359999 -6.45083147 68.17484329 -9.78515625 68.14453125 C-11.06648437 68.13550781 -12.3478125 68.12648438 -13.66796875 68.1171875 C-14.65539062 68.10558594 -15.6428125 68.09398437 -16.66015625 68.08203125 C-17.58830482 65.29758554 -17.83312867 63.37763253 -17.94140625 60.484375 C-17.99748047 59.15889648 -17.99748047 59.15889648 -18.0546875 57.80664062 C-18.12514761 55.94466704 -18.19545949 54.08268784 -18.265625 52.22070312 C-18.32169922 50.8971582 -18.32169922 50.8971582 -18.37890625 49.546875 C-18.40919922 48.73855225 -18.43949219 47.93022949 -18.47070312 47.09741211 C-18.54415569 45.01274879 -18.54415569 45.01274879 -19.66015625 43.08203125 C-20.42328125 42.62828125 -21.18640625 42.17453125 -21.97265625 41.70703125 C-24.66015625 40.08203125 -24.66015625 40.08203125 -26.46875 37.94140625 C-28.5286941 35.7912794 -28.5286941 35.7912794 -31.39453125 36.05859375 C-32.3896875 36.27257812 -33.38484375 36.4865625 -34.41015625 36.70703125 C-35.88742188 37.00480469 -35.88742188 37.00480469 -37.39453125 37.30859375 C-39.01101562 37.69144531 -39.01101562 37.69144531 -40.66015625 38.08203125 C-41.90023437 38.365625 -43.1403125 38.64921875 -44.41796875 38.94140625 C-49.33299695 40.18771697 -54.04784966 41.91057096 -58.78515625 43.70703125 C-59.70296875 44.05459473 -60.62078125 44.4021582 -61.56640625 44.76025391 C-68.39305323 47.42183353 -74.61445202 50.58332595 -80.84765625 54.41796875 C-83.40734804 55.93245306 -85.87120083 57.0669335 -88.66015625 58.08203125 C-88.66015625 58.74203125 -88.66015625 59.40203125 -88.66015625 60.08203125 C-90.07572863 61.06641145 -91.49793961 62.04274941 -92.95361328 62.96679688 C-100.81526329 68.10442452 -107.86142095 74.72847022 -113.66015625 82.08203125 C-114.86478516 83.58443359 -114.86478516 83.58443359 -116.09375 85.1171875 C-120.64892069 90.87140106 -124.82821358 96.62880889 -128.40625 103.05859375 C-130.46496869 106.38076285 -131.91731193 107.83441648 -135.66015625 109.08203125 C-141.18371634 109.44423191 -145.02149829 109.45560067 -149.66015625 106.08203125 C-152.16131649 102.9482246 -153.683168 99.93940813 -153.6328125 95.875 C-152.55657679 90.02232772 -149.76540489 85.09546704 -146.66015625 80.08203125 C-146.00015625 80.08203125 -145.34015625 80.08203125 -144.66015625 80.08203125 C-144.4384375 79.40140625 -144.21671875 78.72078125 -143.98828125 78.01953125 C-142.28492575 74.25210967 -139.9763386 71.30179891 -137.41015625 68.08203125 C-136.94480469 67.47875 -136.47945312 66.87546875 -136 66.25390625 C-132.87758615 62.29712837 -129.57635988 59.24553836 -125.66015625 56.08203125 C-124.15016982 54.40040175 -124.15016982 54.40040175 -123.03515625 52.83203125 C-120.57353039 49.98172762 -120.07517164 49.78858616 -116.66015625 49.08203125 C-116.3647998 48.47141846 -116.06944336 47.86080566 -115.76513672 47.23168945 C-114.51420196 44.79808791 -113.39345856 43.86850788 -111.16796875 42.3125 C-110.46857178 41.81943359 -109.7691748 41.32636719 -109.04858398 40.81835938 C-108.30165283 40.30724609 -107.55472168 39.79613281 -106.78515625 39.26953125 C-106.02082275 38.73908203 -105.25648926 38.20863281 -104.46899414 37.66210938 C-82.87949579 22.82994065 -56.61178087 9.8449102 -29.8828125 9.55078125 C-29.14933594 9.39609375 -28.41585937 9.24140625 -27.66015625 9.08203125 C-26.2871731 7.14039831 -26.2871731 7.14039831 -25.66015625 5.08203125 C-25.00015625 5.08203125 -24.34015625 5.08203125 -23.66015625 5.08203125 C-23.66015625 4.42203125 -23.66015625 3.76203125 -23.66015625 3.08203125 C-16.29344444 -1.5402193 -8.40777531 -2.90136153 0 0 Z " fill="#1076A0" transform="translate(212.66015625,139.91796875)"/>
<path d="M0 0 C3.75293588 2.51693903 6.55050857 4.65152571 8 9 C9.2585283 19.27798112 2.35688848 27.32128155 -3.58984375 35.03515625 C-6.58916517 38.7247591 -9.72132534 42.2628475 -12.95703125 45.74609375 C-14.3651038 47.29955046 -15.71459083 48.90746098 -17.01171875 50.5546875 C-18.87797935 52.84993138 -20.77124866 54.75040167 -23 56.6875 C-23.66 57.26886719 -24.32 57.85023438 -25 58.44921875 C-26.92816864 59.94430264 -28.78346455 60.99563238 -31 62 C-31 62.66 -31 63.32 -31 64 C-31.639375 64.103125 -32.27875 64.20625 -32.9375 64.3125 C-33.618125 64.539375 -34.29875 64.76625 -35 65 C-35.495 66.485 -35.495 66.485 -36 68 C-36.99 68 -37.98 68 -39 68 C-39 68.66 -39 69.32 -39 70 C-40.60131836 71.26513672 -40.60131836 71.26513672 -42.83984375 72.6796875 C-43.65646484 73.19660156 -44.47308594 73.71351563 -45.31445312 74.24609375 C-46.18005859 74.78363281 -47.04566406 75.32117188 -47.9375 75.875 C-48.76830078 76.40480469 -49.59910156 76.93460937 -50.45507812 77.48046875 C-55.80197889 80.83424464 -61.17666826 83.58104615 -67 86 C-68.19625 86.52722656 -69.3925 87.05445313 -70.625 87.59765625 C-84.11338843 93.45199151 -98.40885047 98.73365144 -113.25 99.4375 C-117.08157005 99.67480268 -117.7616841 99.80313034 -120.875 102.375 C-121.57625 103.24125 -122.2775 104.1075 -123 105 C-129.00167327 109.0987037 -134.84137472 109.78583405 -142 109 C-146.92231772 107.35354017 -151.21912757 104.5445679 -155 101 C-155 100.34 -155 99.68 -155 99 C-155.66 99 -156.32 99 -157 99 C-160.72754435 92.44624374 -160.71121123 84.22961387 -158.7890625 77.06640625 C-156.45807737 70.96199471 -152.63907338 67.13281855 -147 64 C-146.34 64 -145.68 64 -145 64 C-144.9727633 61.47909222 -144.95304793 58.95848543 -144.9375 56.4375 C-144.92912109 55.73302734 -144.92074219 55.02855469 -144.91210938 54.30273438 C-144.90888672 53.60341797 -144.90566406 52.90410156 -144.90234375 52.18359375 C-144.89710693 51.54993896 -144.89187012 50.91628418 -144.88647461 50.26342773 C-145.04226709 47.15729419 -145.5601742 44.07878063 -146 41 C-139.73 41 -133.46 41 -127 41 C-127.03480469 42.56492187 -127.06960937 44.12984375 -127.10546875 45.7421875 C-127.13360077 47.78644764 -127.16090155 49.83071933 -127.1875 51.875 C-127.21263672 52.90753906 -127.23777344 53.94007813 -127.26367188 55.00390625 C-127.27817383 56.48310547 -127.27817383 56.48310547 -127.29296875 57.9921875 C-127.31653442 59.35899658 -127.31653442 59.35899658 -127.34057617 60.75341797 C-127.22818604 61.49479004 -127.1157959 62.23616211 -127 63 C-126.01 63.66 -125.02 64.32 -124 65 C-124 65.66 -124 66.32 -124 67 C-123.401875 67.0825 -122.80375 67.165 -122.1875 67.25 C-120 68 -120 68 -118.62109375 70.046875 C-117.2141726 72.17550171 -117.2141726 72.17550171 -115.1171875 72.3125 C-112.39393251 71.93295227 -109.70267143 71.51149459 -107 71 C-106.04988037 70.82138428 -106.04988037 70.82138428 -105.08056641 70.63916016 C-95.01456 68.68128495 -86.16170486 65.71577235 -77 61 C-76.27683594 60.66097656 -75.55367188 60.32195312 -74.80859375 59.97265625 C-61.62986379 53.76933487 -47.02152565 44.527505 -38 33 C-37.34 33 -36.68 33 -36 33 C-35.34 31.68 -34.68 30.36 -34 29 C-33.34 29 -32.68 29 -32 29 C-31.63648438 28.18402344 -31.63648438 28.18402344 -31.265625 27.3515625 C-29.69993883 24.44247894 -27.77490343 21.9853347 -25.75 19.375 C-22.80745263 15.56817102 -20.22220126 11.74211749 -17.9375 7.5 C-15.5746843 3.44666146 -13.39378112 1.23880752 -9.0078125 -0.50390625 C-5.54948256 -1.35839633 -3.38340916 -1.10729754 0 0 Z " fill="#0E76A0" transform="translate(340,376)"/>
<path d="M0 0 C0.54785156 0.37511719 1.09570312 0.75023437 1.66015625 1.13671875 C1.92828125 0.04359375 2.19640625 -1.04953125 2.47265625 -2.17578125 C4.15295164 -7.39354062 4.15295164 -7.39354062 6.66015625 -8.86328125 C10.09765625 -9.36328125 10.09765625 -9.36328125 13.66015625 -8.86328125 C18.37000566 -4.61292934 18.90383425 0.60639935 19.91015625 6.57421875 C20.08289063 7.50298828 20.255625 8.43175781 20.43359375 9.38867188 C22.24262308 19.47472824 22.24262308 19.47472824 21.66015625 23.13671875 C19.08053689 26.35122471 17.56929368 27.95187801 13.47802734 28.78369141 C11.72353271 28.79215088 11.72353271 28.79215088 9.93359375 28.80078125 C8.65484375 28.80722656 7.37609375 28.81367188 6.05859375 28.8203125 C5.39827148 28.80983887 4.73794922 28.79936523 4.05761719 28.78857422 C2.03261821 28.76168505 0.01311347 28.78839832 -2.01171875 28.8203125 C-3.28789062 28.81386719 -4.5640625 28.80742187 -5.87890625 28.80078125 C-7.04631348 28.7951416 -8.2137207 28.78950195 -9.41650391 28.78369141 C-12.33984375 28.13671875 -12.33984375 28.13671875 -14.24365234 25.78662109 C-15.6673806 22.34494037 -15.53707228 20.65357756 -14.33984375 17.13671875 C-12.71529183 15.75238259 -11.05128491 14.41207153 -9.33984375 13.13671875 C-11.27609473 12.15508453 -13.21388914 11.17649421 -15.15234375 10.19921875 C-16.77076172 9.38130859 -16.77076172 9.38130859 -18.421875 8.546875 C-25.69754487 5.03078822 -33.88167256 4.9155904 -41.6484375 7.04296875 C-52.54110663 11.37228438 -61.73804128 18.01888856 -66.65234375 28.88671875 C-70.36510943 37.84748655 -70.93392286 48.70258598 -68.5859375 58.1796875 C-67.64859281 60.31536306 -66.6269002 62.1950769 -65.33984375 64.13671875 C-64.70046875 65.20921875 -64.06109375 66.28171875 -63.40234375 67.38671875 C-57.64015601 75.06963574 -48.98896961 82.18059272 -39.33984375 84.13671875 C-26.84252596 85.13713936 -17.64559199 83.30593492 -7.33984375 76.13671875 C-6.67984375 75.47671875 -6.01984375 74.81671875 -5.33984375 74.13671875 C-1.63617801 73.64289665 0.23260689 73.90435497 3.53515625 75.69921875 C5.66015625 78.13671875 5.66015625 78.13671875 6.28515625 81.57421875 C5.29561978 87.21457663 1.75382049 89.49499411 -2.71484375 92.63671875 C-15.77502948 100.32636081 -30.40615319 102.53383045 -45.15234375 99.01171875 C-62.20256715 93.43164564 -72.77995495 83.49570456 -81.33984375 68.13671875 C-81.81808594 67.30011719 -82.29632813 66.46351563 -82.7890625 65.6015625 C-85.76637115 59.17684383 -85.7106423 52.53266839 -85.77734375 45.57421875 C-85.78773682 44.60427979 -85.79812988 43.63434082 -85.80883789 42.63500977 C-85.69161653 33.10774252 -83.3080887 25.26907772 -78.65234375 17.01171875 C-77.71841797 15.33722656 -77.71841797 15.33722656 -76.765625 13.62890625 C-76.29511719 12.80648438 -75.82460937 11.9840625 -75.33984375 11.13671875 C-74.67984375 11.13671875 -74.01984375 11.13671875 -73.33984375 11.13671875 C-73.09363281 10.55792969 -72.84742188 9.97914063 -72.59375 9.3828125 C-67.44413395 0.15842238 -56.38256955 -5.05027127 -46.77734375 -8.17578125 C-29.74118123 -12.64548411 -14.76039788 -9.52825684 0 0 Z " fill="#F5F8F9" transform="translate(235.33984375,266.86328125)"/>
<path d="M0 0 C5.90106937 3.51313664 10.5363769 8.9595699 12.625 15.5 C13.56494374 22.58420754 13.07929206 28.45762027 9.1796875 34.52734375 C4.32553 40.68651344 -0.58519781 43.8131375 -8.453125 44.94140625 C-15.91039732 45.22610507 -20.48195122 44.21538038 -26.34765625 39.5 C-29.24361797 36.64309749 -30.74228253 34.24164421 -32.375 30.5 C-32.808125 29.571875 -33.24125 28.64375 -33.6875 27.6875 C-34.92145663 21.96642837 -34.18037925 16.63425502 -32.125 11.1875 C-24.84663206 0.01000638 -12.92231318 -5.60637323 0 0 Z " fill="#F9FBFB" transform="translate(214.375,290.5)"/>
<path d="M0 0 C0.66 0 1.32 0 2 0 C2.44138857 1.72698635 2.88208849 3.45415123 3.31958008 5.18212891 C3.69168499 6.65124815 4.06655018 8.11967085 4.4440918 9.58740234 C5.45968944 13.59575764 6.25263072 17.52348571 6.8125 21.625 C7.65567267 26.20547856 9.61771003 27.63239971 13.2421875 30.32421875 C17.35677206 34.24678937 18.78689747 40.08614903 19.19140625 45.6171875 C18.81025051 53.03239922 15.86451647 59.20893267 10.5625 64.375 C4.98810644 67.90998128 -0.19527201 70.68105853 -7.01171875 69.71484375 C-11.32510932 68.73714189 -15.16580418 67.24440731 -19 65 C-19.33 64.34 -19.66 63.68 -20 63 C-18.68 63 -17.36 63 -16 63 C-16 63.66 -16 64.32 -16 65 C-14.02 65.33 -12.04 65.66 -10 66 C-8.48046291 61.08417923 -8.48046291 61.08417923 -8 56 C-8.598125 55.731875 -9.19625 55.46375 -9.8125 55.1875 C-12.06177497 53.96646501 -13.38269906 52.97265157 -15 51 C-16.15527406 45.1556724 -14.77723921 40.12721084 -12 35 C-9.6750863 33.83754315 -8.14547205 33.901568 -5.5625 33.8125 C-3.15794006 33.65945148 -3.15794006 33.65945148 -1 33 C1.16247221 30.09748698 1.16247221 30.09748698 2 27 C2.66 27 3.32 27 4 27 C3.85966889 25.02043559 3.7125877 23.04134859 3.5625 21.0625 C3.48128906 19.96035156 3.40007812 18.85820312 3.31640625 17.72265625 C3.29581916 15.08890097 3.29581916 15.08890097 2 14 C1.79028092 12.40089201 1.6317933 10.79490754 1.5 9.1875 C1.23770892 6.01658817 0.85788192 3.06692788 0 0 Z " fill="#12759D" transform="translate(360,266)"/>
<path d="M0 0 C3.74304092 1.98302812 5.85962937 3.40467843 8.23828125 6.97265625 C5.92828125 7.30265625 3.61828125 7.63265625 1.23828125 7.97265625 C1.18031723 11.93000844 1.18031723 11.93000844 1.5625 15.6875 C1.62115234 16.37392578 1.67980469 17.06035156 1.74023438 17.76757812 C1.86368811 19.19314389 1.99906781 20.61772826 2.14648438 22.04101562 C2.51180513 26.62686554 2.20905348 29.39005449 -0.76171875 32.97265625 C-4.18404847 34.11343282 -6.84845092 34.07080742 -10.44921875 34.03515625 C-12.21845703 34.02162109 -12.21845703 34.02162109 -14.0234375 34.0078125 C-14.92707031 33.99621094 -15.83070312 33.98460937 -16.76171875 33.97265625 C-16.76171875 33.31265625 -16.76171875 32.65265625 -16.76171875 31.97265625 C-17.75171875 31.97265625 -18.74171875 31.97265625 -19.76171875 31.97265625 C-19.76171875 32.63265625 -19.76171875 33.29265625 -19.76171875 33.97265625 C-20.42171875 33.97265625 -21.08171875 33.97265625 -21.76171875 33.97265625 C-21.76171875 34.96265625 -21.76171875 35.95265625 -21.76171875 36.97265625 C-24.23671875 37.46765625 -24.23671875 37.46765625 -26.76171875 37.97265625 C-31.30725442 32.36649558 -33.03516447 26.04051691 -32.64453125 18.80078125 C-31.38229203 12.36078523 -27.75324431 6.56611591 -22.82421875 2.29296875 C-15.98933062 -2.15473419 -7.63714477 -2.84097465 0 0 Z " fill="#17789F" transform="translate(60.76171875,290.02734375)"/>
<path d="M0 0 C6.10468455 0.57231418 11.01989652 4.07341283 15.3125 8.25 C18.8564584 14.02533962 20.83487689 20.20171678 20 27 C18.04565039 34.5838598 14.60088131 39.68513819 8 44 C7.34 44 6.68 44 6 44 C5.9175 43.21625 5.835 42.4325 5.75 41.625 C5.27785697 38.86319488 5.27785697 38.86319488 3 37.75 C2.34 37.5025 1.68 37.255 1 37 C0.67 36.67 0.34 36.34 0 36 C-1.51928038 35.92820036 -3.04167482 35.91607993 -4.5625 35.9375 C-5.38878906 35.94652344 -6.21507812 35.95554688 -7.06640625 35.96484375 C-7.70449219 35.97644531 -8.34257812 35.98804688 -9 36 C-9 35.34 -9 34.68 -9 34 C-9.99 33.67 -10.98 33.34 -12 33 C-15.11265402 24.80880522 -14.29029868 18.81445937 -11 11 C-7.37 11 -3.74 11 0 11 C1.36579868 7.06045047 1.36579868 7.06045047 2 3 C2 2.34 2 1.68 2 1 C1.34 0.67 0.68 0.34 0 0 Z " fill="#18779F" transform="translate(207,139)"/>
<path d="M0 0 C0.33 0.66 0.66 1.32 1 2 C1.66717041 1.99476318 2.33434082 1.98952637 3.02172852 1.98413086 C18.71480117 1.87819625 34.32859278 2.16736356 50 3 C50.495 10.92 50.495 10.92 51 19 C49.52611816 19.02505615 48.05223633 19.0501123 46.53369141 19.07592773 C41.08063621 19.16989152 35.62771169 19.27013892 30.17480469 19.37231445 C27.81187999 19.41570516 25.44892309 19.45737713 23.0859375 19.49731445 C19.69521364 19.55491693 16.3046525 19.6186401 12.9140625 19.68359375 C11.32182358 19.70866249 11.32182358 19.70866249 9.69741821 19.73423767 C8.22611954 19.7641555 8.22611954 19.7641555 6.72509766 19.79467773 C5.42603989 19.81799416 5.42603989 19.81799416 4.10073853 19.84178162 C1.94242107 19.87096592 1.94242107 19.87096592 0 21 C0 14.07 0 7.14 0 0 Z " fill="#F9F9FA" transform="translate(283,302)"/>
<path d="M0 0 C0.33 0.66 0.66 1.32 1 2 C17.5 1.67 34 1.34 51 1 C51 6.61 51 12.22 51 18 C34.17 18 17.34 18 0 18 C0 12.06 0 6.12 0 0 Z " fill="#FAFBFC" transform="translate(73,303)"/>
<path d="M0 0 C0 0.66 0 1.32 0 2 C1.0725 2.0825 2.145 2.165 3.25 2.25 C7.2738451 3.05476902 8.48169253 3.87729874 11 7 C10.34 7.33 9.68 7.66 9 8 C9.99 9.65 10.98 11.3 12 13 C10.02 13 8.04 13 6 13 C5.67 13.66 5.34 14.32 5 15 C4.34 14.34 3.68 13.68 3 13 C3 12.01 3 11.02 3 10 C-1.62 9.34 -6.24 8.68 -11 8 C-11 8.66 -11 9.32 -11 10 C-11.61875 10.45375 -12.2375 10.9075 -12.875 11.375 C-15.28940031 13.22130612 -16.06588836 14.11982243 -17 17 C-17.26328696 19.75902793 -17.18036901 22.20428039 -17 25 C-16.34 25.66 -15.68 26.32 -15 27 C-15.375 29.125 -15.375 29.125 -16 31 C-11.67551867 31.73832608 -7.34464536 32.39174965 -3 33 C-2.8125 35.875 -2.8125 35.875 -3 39 C-6.5486135 41.36574234 -7.5764525 41.10865265 -11.6875 40.625 C-12.68136719 40.51414062 -13.67523438 40.40328125 -14.69921875 40.2890625 C-15.45847656 40.19367188 -16.21773437 40.09828125 -17 40 C-17 39.34 -17 38.68 -17 38 C-17.66 38 -18.32 38 -19 38 C-19.33 37.34 -19.66 36.68 -20 36 C-20.969375 35.71125 -21.93875 35.4225 -22.9375 35.125 C-26 34 -26 34 -27.14453125 32.25390625 C-29.76797861 25.3419011 -29.80907024 16.85743618 -27 10 C-24.1961087 6.45824256 -22.34481279 4.93103131 -18 4 C-17.67 3.01 -17.34 2.02 -17 1 C-11.33357449 -0.22517308 -5.76291482 -0.09228867 0 0 Z " fill="#0B739E" transform="translate(209,441)"/>
<path d="M0 0 C5.94 0 11.88 0 18 0 C18 7.59 18 15.18 18 23 C14.99686252 24.50156874 12.20932478 24.09281204 8.875 24.0625 C7.59367188 24.05347656 6.31234375 24.04445312 4.9921875 24.03515625 C3.51105469 24.01775391 3.51105469 24.01775391 2 24 C1.04831317 21.14493951 0.8099054 19.09062718 0.68359375 16.11328125 C0.64169922 15.17548828 0.59980469 14.23769531 0.55664062 13.27148438 C0.51732422 12.29501953 0.47800781 11.31855469 0.4375 10.3125 C0.39431641 9.32443359 0.35113281 8.33636719 0.30664062 7.31835938 C0.20058458 4.87907028 0.09979026 2.43955346 0 0 Z " fill="#F4F7F7" transform="translate(194,184)"/>
<path d="M0 0 C6.27 0 12.54 0 19 0 C18.96519531 1.55332031 18.93039063 3.10664063 18.89453125 4.70703125 C18.8663956 6.74217671 18.8390952 8.77733383 18.8125 10.8125 C18.78736328 11.83666016 18.76222656 12.86082031 18.73632812 13.91601562 C18.72666016 14.89892578 18.71699219 15.88183594 18.70703125 16.89453125 C18.6913208 17.80050049 18.67561035 18.70646973 18.65942383 19.63989258 C19.06124927 22.42444206 19.83688562 23.27599535 22 25 C19.23723823 24.47731534 16.6739124 23.89130413 14 23 C8.84298382 22.82809946 4.08317804 23.15280366 -1 24 C-0.34 23.67 0.32 23.34 1 23 C1.0272367 20.47909222 1.04695207 17.95848543 1.0625 15.4375 C1.07087891 14.73302734 1.07925781 14.02855469 1.08789062 13.30273438 C1.09272461 12.25375977 1.09272461 12.25375977 1.09765625 11.18359375 C1.10551147 10.23311157 1.10551147 10.23311157 1.11352539 9.26342773 C0.95773291 6.15729419 0.4398258 3.07878063 0 0 Z " fill="#F8FBFB" transform="translate(194,417)"/>
<path d="M0 0 C3.6578218 2.03993908 5.66946174 3.50419262 8 7 C8.57091285 11.97509769 8.54264082 14.03725016 6.0625 18.4375 C2.59540264 21.33854065 0.58037255 22.02461597 -3.84765625 22.23828125 C-7.21156613 21.86587017 -8.78855966 20.47949372 -11 18 C-13.52599898 14.51171569 -13.50729677 11.20331607 -13 7 C-9.6691195 1.45265999 -6.44860358 -0.62005804 0 0 Z " fill="#F2FAFA" transform="translate(206,451)"/>
<path d="M0 0 C2.90434757 1.71648807 3.35759116 2.8284519 5 6 C5.85267913 9.61134691 5.83064127 12.53769236 3.97265625 15.80859375 C1.8400303 18.51164852 0.28644518 19.90451827 -3 21 C-6.375 21.375 -6.375 21.375 -10 21 C-14.26928914 17.56600656 -15.75956504 15.12384214 -16.375 9.6875 C-16.00251546 6.02473535 -15.38213887 3.83244561 -12.82421875 1.11328125 C-8.84960945 -1.31233685 -4.411235 -0.97880477 0 0 Z " fill="#F4FAFA" transform="translate(209,152)"/>
<path d="M0 0 C2.93423195 1.79646854 4.47205355 2.9441071 6 6 C6.57971014 13.07246377 6.57971014 13.07246377 4.125 17 C2 19 2 19 0 19 C0 19.66 0 20.32 0 21 C-7.76785714 21.66964286 -7.76785714 21.66964286 -11.4375 18.625 C-14.60685046 15.3783483 -14.92144181 14.7855819 -15.375 10.25 C-15.29284992 6.49847969 -14.44245187 3.87767824 -11.7578125 1.0703125 C-8.09767757 -1.15830299 -4.08033421 -0.80400674 0 0 Z " fill="#F8FCFB" transform="translate(56,302)"/>
<path d="M0 0 C3.58552881 1.63687185 4.79315055 2.68972583 7 6 C7.48256365 10.26264558 7.26873267 12.49132744 5.25 16.3125 C2.28082736 19.85901176 0.66854282 20.70337016 -3.8125 21.5 C-7.7484452 20.88259683 -9.75430517 19.61113242 -12.63671875 16.9140625 C-14.71173365 14.00071779 -14.78124625 11.62029848 -14.50390625 8.12109375 C-13.76047728 4.99177645 -12.31550148 3.17929551 -10 1 C-6.80876226 -0.59561887 -3.47254909 -0.3799142 0 0 Z " fill="#F3FAFB" transform="translate(359,302)"/>
<path d="M0 0 C5.09327536 -0.17563018 9.3172317 -0.28693336 14 2 C17.11696902 5.22086799 17.19217534 8.20362756 17.25 12.5 C17.18891807 16.12419423 16.79447265 19.46331531 16 23 C16.99 23 17.98 23 19 23 C19.495 26.96 19.495 26.96 20 31 C13.32581116 35.70226941 8.11424802 36.87853512 0 36 C-5.45479871 34.2605148 -9.24150922 31.22830213 -13 27 C-11.35 27.33 -9.7 27.66 -8 28 C-8 28.66 -8 29.32 -8 30 C-7.34 30 -6.68 30 -6 30 C-6 30.66 -6 31.32 -6 32 C-4.22925083 32.02705729 -2.45838289 32.04642195 -0.6875 32.0625 C0.29863281 32.07410156 1.28476563 32.08570313 2.30078125 32.09765625 C5.09963849 32.12329862 5.09963849 32.12329862 8 31 C8 29.02 8 27.04 8 25 C6.453125 25.061875 6.453125 25.061875 4.875 25.125 C1.13170373 25.00424851 -1.53734547 24.35127982 -5 23 C-5.144375 22.195625 -5.28875 21.39125 -5.4375 20.5625 C-5.74135249 18.07896294 -5.74135249 18.07896294 -7 17 C-7.45154185 7.969163 -7.45154185 7.969163 -5 4 C-2.375 2.6875 -2.375 2.6875 0 2 C0 1.34 0 0.68 0 0 Z M-4 7 C-5.5547669 10.10953379 -5.28644437 12.56266761 -5 16 C-2.97333762 19.70390021 -1.51955484 21.65363011 2 24 C5.14375467 24.28258469 7.97782989 23.89447767 11 23 C13.93565908 20.5436322 15.60586675 18.80175198 16.4375 15 C16.65549388 11.40310098 16.11525191 9.18934242 14.25 6.125 C11.16812992 3.21434492 9.31452329 2.20003615 5.125 1.5625 C0.7317629 2.17755319 -0.84565969 3.91901645 -4 7 Z M-7 23 C-5 24 -5 24 -5 24 Z " fill="#147499" transform="translate(198,449)"/>
<path d="M0 0 C0.66 0 1.32 0 2 0 C2.44138857 1.72698635 2.88208849 3.45415123 3.31958008 5.18212891 C3.69168499 6.65124815 4.06655018 8.11967085 4.4440918 9.58740234 C5.45968944 13.59575764 6.25263072 17.52348571 6.8125 21.625 C7.49348931 25.3485746 8.59395936 26.95429811 11.5 29.375 C12.1084375 29.79523438 12.716875 30.21546875 13.34375 30.6484375 C15.3144963 32.25664085 16.07465272 33.64540344 17 36 C17.125 38.75 17.125 38.75 17 41 C16.34 41 15.68 41 15 41 C14.34 39.68 13.68 38.36 13 37 C11.68 37 10.36 37 9 37 C8.34 37 7.68 37 7 37 C6.34 37.66 5.68 38.32 5 39 C5 38.34 5 37.68 5 37 C2.72923158 36.97300275 0.45837179 36.95360547 -1.8125 36.9375 C-3.07707031 36.92589844 -4.34164063 36.91429687 -5.64453125 36.90234375 C-8.99605237 36.83840884 -8.99605237 36.83840884 -12 38 C-12 37.01 -12 36.02 -12 35 C-9.6750863 33.83754315 -8.14547205 33.901568 -5.5625 33.8125 C-3.15794006 33.65945148 -3.15794006 33.65945148 -1 33 C1.16247221 30.09748698 1.16247221 30.09748698 2 27 C2.66 27 3.32 27 4 27 C3.85966889 25.02043559 3.7125877 23.04134859 3.5625 21.0625 C3.48128906 19.96035156 3.40007812 18.85820312 3.31640625 17.72265625 C3.29581916 15.08890097 3.29581916 15.08890097 2 14 C1.79028092 12.40089201 1.6317933 10.79490754 1.5 9.1875 C1.23770892 6.01658817 0.85788192 3.06692788 0 0 Z " fill="#1D7BA1" transform="translate(360,266)"/>
<path d="M0 0 C3.72907913 1.99728995 5.85026957 3.41602935 8.2265625 6.98046875 C5.9165625 7.31046875 3.6065625 7.64046875 1.2265625 7.98046875 C1.2265625 9.30046875 1.2265625 10.62046875 1.2265625 11.98046875 C1.2265625 13.98046875 1.2265625 15.98046875 1.2265625 17.98046875 C0.3809375 17.17609375 -0.4646875 16.37171875 -1.3359375 15.54296875 C-4.6249533 12.76418213 -7.45973354 12.23929099 -11.7734375 11.98046875 C-8.83515153 9.47748441 -6.59440989 8.51115936 -2.7734375 7.98046875 C-3.1034375 6.33046875 -3.4334375 4.68046875 -3.7734375 2.98046875 C-2.7834375 3.31046875 -1.7934375 3.64046875 -0.7734375 3.98046875 C-0.7734375 3.32046875 -0.7734375 2.66046875 -0.7734375 1.98046875 C-5.7234375 1.98046875 -10.6734375 1.98046875 -15.7734375 1.98046875 C-15.7734375 3.63046875 -15.7734375 5.28046875 -15.7734375 6.98046875 C-17.4234375 7.31046875 -19.0734375 7.64046875 -20.7734375 7.98046875 C-20.7734375 7.32046875 -20.7734375 6.66046875 -20.7734375 5.98046875 C-22.77327284 6.77164779 -22.77327284 6.77164779 -24.7734375 7.98046875 C-25.1034375 8.97046875 -25.4334375 9.96046875 -25.7734375 10.98046875 C-26.7634375 10.98046875 -27.7534375 10.98046875 -28.7734375 10.98046875 C-27.41138488 6.52284199 -25.60366863 4.59198998 -21.7734375 1.98046875 C-20.9484375 1.40296875 -20.1234375 0.82546875 -19.2734375 0.23046875 C-13.05698118 -1.98969422 -6.25218665 -2.29833904 0 0 Z " fill="#237BA0" transform="translate(60.7734375,290.01953125)"/>
<path d="M0 0 C2.12493141 -0.02693575 4.24995912 -0.04636628 6.375 -0.0625 C7.55835937 -0.07410156 8.74171875 -0.08570313 9.9609375 -0.09765625 C13 0 13 0 15 1 C15 1.66 15 2.32 15 3 C14.34 3 13.68 3 13 3 C13 4.32 13 5.64 13 7 C6.96056539 9.44841944 -0.54295513 11.19831541 -6.83984375 9.015625 C-7.55269531 8.68046875 -8.26554687 8.3453125 -9 8 C-9 7.01 -9 6.02 -9 5 C-7.68 5 -6.36 5 -5 5 C-5 5.66 -5 6.32 -5 7 C-2.96758273 6.36020151 -2.96758273 6.36020151 -1 5 C-0.34179745 2.45963073 -0.34179745 2.45963073 0 0 Z " fill="#08739F" transform="translate(45,291)"/>
<path d="M0 0 C2 1 2 1 3.125 4.0625 C3.41375 5.031875 3.7025 6.00125 4 7 C3.34 7 2.68 7 2 7 C2.1416533 9.87526069 2.28818532 12.75013536 2.4375 15.625 C2.47681641 16.43324219 2.51613281 17.24148438 2.55664062 18.07421875 C2.78796082 22.45150865 3.16920917 26.68547281 4 31 C3.34 31 2.68 31 2 31 C1.505 32.485 1.505 32.485 1 34 C-0.84765625 35.82421875 -0.84765625 35.82421875 -3.0625 37.6875 C-3.79597656 38.31011719 -4.52945313 38.93273437 -5.28515625 39.57421875 C-5.85105469 40.04472656 -6.41695313 40.51523437 -7 41 C-7.99 40.34 -8.98 39.68 -10 39 C-7.03839944 35.87386607 -4.90432869 33.95216435 -1 32 C-0.67 21.44 -0.34 10.88 0 0 Z " fill="#344F60" transform="translate(124,296)"/>
<path d="M0 0 C3.14510401 0.74002447 6.14590457 1.66371592 9.1875 2.75 C9.1875 3.08 9.1875 3.41 9.1875 3.75 C5.2275 3.42 1.2675 3.09 -2.8125 2.75 C-4.4625 5.72 -6.1125 8.69 -7.8125 11.75 C-8.4725 11.75 -9.1325 11.75 -9.8125 11.75 C-9.4825 12.74 -9.1525 13.73 -8.8125 14.75 C-9.75 16.9375 -9.75 16.9375 -10.8125 18.75 C-11.4725 18.75 -12.1325 18.75 -12.8125 18.75 C-13.080625 19.69875 -13.34875 20.6475 -13.625 21.625 C-14.8125 24.75 -14.8125 24.75 -17.8125 26.75 C-17.44454357 20.20563205 -14.91198107 15.90312598 -11.4375 10.4375 C-10.9425 9.62732422 -10.4475 8.81714844 -9.9375 7.98242188 C-4.70543449 -0.41826084 -4.70543449 -0.41826084 0 0 Z " fill="#304D5E" transform="translate(129.8125,240.25)"/>
<path d="M0 0 C0.66 0.33 1.32 0.66 2 1 C2 2.65 2 4.3 2 6 C1.01 6.33 0.02 6.66 -1 7 C-3.78544393 11.54467167 -3.42685288 16.85313931 -3 22 C-2.12899451 25.4614054 -2.12899451 25.4614054 -1 28 C-0.34 27.67 0.32 27.34 1 27 C1.66 28.32 2.32 29.64 3 31 C2.34 31.66 1.68 32.32 1 33 C0.34 32.67 -0.32 32.34 -1 32 C-1.33 32.66 -1.66 33.32 -2 34 C-6.12296271 26.29185232 -7.11402593 18.69140954 -6 10 C-4.40007601 6.33370189 -2.41357687 3.18218617 0 0 Z " fill="#1E7295" transform="translate(339,294)"/>
<path d="M0 0 C5.875 2.75 5.875 2.75 7 5 C5.7934375 5.556875 5.7934375 5.556875 4.5625 6.125 C1.7461563 7.79931972 1.7461563 7.79931972 1.0625 10.9375 C0.75647902 14.28857522 0.75647902 14.28857522 3 18 C9.6 18.33 16.2 18.66 23 19 C23 19.33 23 19.66 23 20 C16.73 20 10.46 20 4 20 C3.67 21.32 3.34 22.64 3 24 C2.61328125 23.51789063 2.2265625 23.03578125 1.828125 22.5390625 C1.30734375 21.90742188 0.7865625 21.27578125 0.25 20.625 C-0.26046875 19.99851562 -0.7709375 19.37203125 -1.296875 18.7265625 C-3.08199481 16.91687682 -4.67949644 15.99882545 -7 15 C-6.34 14.34 -5.68 13.68 -5 13 C-4.01 13 -3.02 13 -2 13 C-2.061875 12.278125 -2.12375 11.55625 -2.1875 10.8125 C-1.96441582 7.46623733 -0.71183666 5.82825187 1 3 C0.67 2.01 0.34 1.02 0 0 Z " fill="#203D4C" transform="translate(220,276)"/>
<path d="M0 0 C0.99 0 1.98 0 3 0 C3 2.31 3 4.62 3 7 C8.445 7.495 8.445 7.495 14 8 C9.56373928 11.32719554 6.55296935 12.50167652 0.98046875 11.71484375 C-3.32933523 10.73421913 -7.16816174 9.24302727 -11 7 C-11.33 6.34 -11.66 5.68 -12 5 C-10.68 5 -9.36 5 -8 5 C-8 5.66 -8 6.32 -8 7 C-5.03 7.495 -5.03 7.495 -2 8 C-1.34 5.36 -0.68 2.72 0 0 Z " fill="#247B9D" transform="translate(352,324)"/>
<path d="M0 0 C0.3403125 1.2065625 0.3403125 1.2065625 0.6875 2.4375 C1.120625 3.283125 1.55375 4.12875 2 5 C4.54775306 5.89386164 4.54775306 5.89386164 7 6 C7 6.66 7 7.32 7 8 C11.24733832 8.98142381 15.47324533 9.30920379 19.8125 9.5625 C20.85180664 9.62727539 20.85180664 9.62727539 21.91210938 9.69335938 C23.60788686 9.79861453 25.30392052 9.89972863 27 10 C27 10.33 27 10.66 27 11 C18.99060789 13.00234803 11.68396611 12.39644778 4.3125 8.625 C2 7 2 7 0.21875 4.85546875 C-1.87204187 2.70184312 -1.87204187 2.70184312 -4.76953125 3.01171875 C-5.77371094 3.23472656 -6.77789062 3.45773438 -7.8125 3.6875 C-9.39224609 4.01427734 -9.39224609 4.01427734 -11.00390625 4.34765625 C-12.48697266 4.67056641 -12.48697266 4.67056641 -14 5 C-15.41422763 5.2242932 -16.8305815 5.43632474 -18.25 5.625 C-19.1575 5.74875 -20.065 5.8725 -21 6 C-21 5.34 -21 4.68 -21 4 C-14.33328751 1.8787733 -7.02472289 0 0 0 Z " fill="#40829E" transform="translate(186,173)"/>
<path d="M0 0 C0.66 0.99 1.32 1.98 2 3 C-2.95 3 -7.9 3 -13 3 C-13 4.65 -13 6.3 -13 8 C-14.65 8.33 -16.3 8.66 -18 9 C-18 8.34 -18 7.68 -18 7 C-19.99983534 7.79117904 -19.99983534 7.79117904 -22 9 C-22.33 9.99 -22.66 10.98 -23 12 C-23.99 12 -24.98 12 -26 12 C-24.63794738 7.54237324 -22.83023113 5.61152123 -19 3 C-18.175 2.4225 -17.35 1.845 -16.5 1.25 C-11.17410265 -0.6521062 -5.59552532 -0.78831987 0 0 Z " fill="#2C789A" transform="translate(58,289)"/>
<path d="M0 0 C0.8125 1.625 0.8125 1.625 1 4 C-3 9.66666667 -3 9.66666667 -7 11 C-8.9375 11.16796875 -8.9375 11.16796875 -11 11.1875 C-11.680625 11.20167969 -12.36125 11.21585938 -13.0625 11.23046875 C-15 11 -15 11 -18 9 C-15.69 9 -13.38 9 -11 9 C-11 8.01 -11 7.02 -11 6 C-10.34 6 -9.68 6 -9 6 C-9.33 5.01 -9.66 4.02 -10 3 C-7.69 3.66 -5.38 4.32 -3 5 C-2.01 3.35 -1.02 1.7 0 0 Z " fill="#22799B" transform="translate(84,238)"/>
<path d="M0 0 C1.32 0.33 2.64 0.66 4 1 C3.67 1.66 3.34 2.32 3 3 C3.99 2.67 4.98 2.34 6 2 C6.5878125 2.8353125 6.5878125 2.8353125 7.1875 3.6875 C9.28939992 6.36923438 11.4663373 8.71970357 14 11 C14.99 11 15.98 11 17 11 C17 12.32 17 13.64 17 15 C17.2981424 16.34164079 17.62243192 17.67851173 18 19 C7.75285171 10.42585551 7.75285171 10.42585551 4 6 C4 5.34 4 4.68 4 4 C2.68 3.34 1.36 2.68 0 2 C0 1.34 0 0.68 0 0 Z " fill="#2B799B" transform="translate(77,417)"/>
<path d="M0 0 C-0.33 0.66 -0.66 1.32 -1 2 C-4.3 1.01 -7.6 0.02 -11 -1 C-11 -1.66 -11 -2.32 -11 -3 C-13.77316676 -2.74516846 -16.54234555 -2.47190551 -19.3125 -2.1875 C-20.09818359 -2.11724609 -20.88386719 -2.04699219 -21.69335938 -1.97460938 C-22.45068359 -1.89404297 -23.20800781 -1.81347656 -23.98828125 -1.73046875 C-24.68477783 -1.66239014 -25.38127441 -1.59431152 -26.09887695 -1.52416992 C-28.45163123 -0.87547807 -29.36455817 0.23319275 -31 2 C-33.1875 2.6875 -33.1875 2.6875 -35 3 C-31.55739834 -0.84761362 -29.00776234 -2.72142238 -24 -4 C-23.38125 -4.20625 -22.7625 -4.4125 -22.125 -4.625 C-13.56445746 -6.13568398 -7.73299743 -3.60873213 0 0 Z " fill="#387F9A" transform="translate(220,444)"/>
<path d="M0 0 C0.33 0 0.66 0 1 0 C1.33 3.96 1.66 7.92 2 12 C-5.26 12 -12.52 12 -20 12 C-19.67 11.34 -19.34 10.68 -19 10 C-12.73 10 -6.46 10 0 10 C-0.33 7.03 -0.66 4.06 -1 1 C-0.67 0.67 -0.34 0.34 0 0 Z " fill="#E6EFF3" transform="translate(332,309)"/>
<path d="M0 0 C2 3 2 3 1.5625 5.375 C1.376875 6.24125 1.19125 7.1075 1 8 C1.06709284 10.67140463 1.06709284 10.67140463 2 13 C4.96652905 14.92262796 7.25774408 15.22771341 10.75 15.125 C11.94882812 15.09792969 11.94882812 15.09792969 13.171875 15.0703125 C14.07679687 15.03550781 14.07679687 15.03550781 15 15 C14.01 15.495 14.01 15.495 13 16 C13 16.66 13 17.32 13 18 C5.23214286 18.66964286 5.23214286 18.66964286 1.5625 15.625 C-2.04420655 11.93032499 -2.12501707 10.10144254 -2.23046875 4.97265625 C-2 3 -2 3 0 0 Z " fill="#D0EFF4" transform="translate(43,305)"/>
<path d="M0 0 C6.27 0 12.54 0 19 0 C18.96519531 1.55332031 18.93039063 3.10664063 18.89453125 4.70703125 C18.8663956 6.74217671 18.8390952 8.77733383 18.8125 10.8125 C18.78736328 11.83666016 18.76222656 12.86082031 18.73632812 13.91601562 C18.72666016 14.89892578 18.71699219 15.88183594 18.70703125 16.89453125 C18.6913208 17.80050049 18.67561035 18.70646973 18.65942383 19.63989258 C19.06124927 22.42444206 19.83688562 23.27599535 22 25 C18.62537285 24.45276317 16.91765 23.9451 14 22 C14.99 22 15.98 22 17 22 C16.505 12.1 16.505 12.1 16 2 C11.71 1.67 7.42 1.34 3 1 C3.33 1.99 3.66 2.98 4 4 C3.01 4.33 2.02 4.66 1 5 C0.67 3.35 0.34 1.7 0 0 Z " fill="#CBD6DD" transform="translate(194,417)"/>
<path d="M0 0 C0.66 0 1.32 0 2 0 C1.5573189 5.89613547 -1.03741479 9.96495799 -4.0625 14.875 C-4.53494141 15.65875 -5.00738281 16.4425 -5.49414062 17.25 C-6.65436287 19.17198433 -7.82305776 21.08822535 -9 23 C-9.97608217 20.07175348 -10.08226668 18.04386724 -10 15 C-9.01 15.495 -9.01 15.495 -8 16 C-8 15.01 -8 14.02 -8 13 C-7 10.8125 -7 10.8125 -6 9 C-5.34 9 -4.68 9 -4 9 C-3.34 7.35 -2.68 5.7 -2 4 C-1.34 4 -0.68 4 0 4 C0 2.68 0 1.36 0 0 Z " fill="#364F62" transform="translate(295,356)"/>
<path d="M0 0 C-5.6288074 2.91864088 -11.23109046 4.67495142 -17.375 6.125 C-18.10460937 6.30675781 -18.83421875 6.48851562 -19.5859375 6.67578125 C-24.17796832 7.76638857 -28.28167196 8.18674122 -33 8 C-33 7.67 -33 7.34 -33 7 C-31.02 7 -29.04 7 -27 7 C-27 6.34 -27 5.68 -27 5 C-25.80761719 4.72285156 -24.61523438 4.44570313 -23.38671875 4.16015625 C-21.82029523 3.79434477 -20.25388993 3.42845529 -18.6875 3.0625 C-17.90181641 2.88009766 -17.11613281 2.69769531 -16.30664062 2.50976562 C-15.54931641 2.33251953 -14.79199219 2.15527344 -14.01171875 1.97265625 C-13.31522217 1.81031494 -12.61872559 1.64797363 -11.90112305 1.48071289 C-7.69265746 0.41657153 -4.40121566 -0.0830418 0 0 Z " fill="#3C7E9C" transform="translate(259,467)"/>
<path d="M0 0 C0.33 0 0.66 0 1 0 C1.44680851 8.78723404 1.44680851 8.78723404 -2 13 C-5.42232972 14.14077657 -8.08673217 14.09815117 -11.6875 14.0625 C-13.45673828 14.04896484 -13.45673828 14.04896484 -15.26171875 14.03515625 C-16.61716797 14.01775391 -16.61716797 14.01775391 -18 14 C-18 13.34 -18 12.68 -18 12 C-18.66 11.67 -19.32 11.34 -20 11 C-20.625 8.4375 -20.625 8.4375 -21 6 C-20.5875 6.42152344 -20.175 6.84304688 -19.75 7.27734375 C-15.20182339 11.59202022 -12.26097416 12.7803167 -6 13 C-6 12.34 -6 11.68 -6 11 C-5.195625 10.2575 -4.39125 9.515 -3.5625 8.75 C-0.71287976 5.69187096 -0.28527911 4.08900062 0 0 Z " fill="#227696" transform="translate(62,310)"/>
<path d="M0 0 C1.4800841 0.11362262 2.95910074 0.24122908 4.4375 0.375 C5.26121094 0.44460938 6.08492188 0.51421875 6.93359375 0.5859375 C7.95646484 0.79089844 7.95646484 0.79089844 9 1 C9.33 1.66 9.66 2.32 10 3 C13.41656024 3.16677282 13.41656024 3.16677282 17 3 C17.66 2.34 18.32 1.68 19 1 C19.99 1 20.98 1 22 1 C22 1.66 22 2.32 22 3 C18.11016358 6.37119156 14.36415536 6.44714144 9.4453125 6.29296875 C6.11392801 5.89384121 3.75053957 4.9042197 1 3 C0.67 2.01 0.34 1.02 0 0 Z " fill="#3E839A" transform="translate(121,453)"/>
<path d="M0 0 C2.82894991 2.28141122 3.90655967 3.60287862 4.75 7.1875 C5.23355588 14.56172713 5.2828143 20.89791105 3 28 C2.34 28.33 1.68 28.66 1 29 C1.0721875 28.40574219 1.144375 27.81148438 1.21875 27.19921875 C2.27057519 17.80583548 2.7542648 9.12350215 0 0 Z " fill="#35819D" transform="translate(69,297)"/>
<path d="M0 0 C0.66 0.66 1.32 1.32 2 2 C1.75 5.5625 1.75 5.5625 1 9 C0.01 9.495 0.01 9.495 -1 10 C-1.33 11.32 -1.66 12.64 -2 14 C-6.62 14.33 -11.24 14.66 -16 15 C-16 14.34 -16 13.68 -16 13 C-16.99 12.67 -17.98 12.34 -19 12 C-18.67 11.01 -18.34 10.02 -18 9 C-17.649375 9.495 -17.29875 9.99 -16.9375 10.5 C-13.95719226 12.80733502 -11.66462305 12.37909894 -8 12 C-4.4613006 10.34860695 -3.18929847 9.28394771 -1 6 C-0.60986284 4.0103005 -0.26797351 2.00980131 0 0 Z " fill="#2A7B9A" transform="translate(214,160)"/>
<path d="M0 0 C2.52774895 0.3415877 4.48123244 0.6376256 6.59375 2.11328125 C8.66047502 4.88613731 8.76632212 7.46957882 9.1875 10.875 C9.34605469 12.08929688 9.50460938 13.30359375 9.66796875 14.5546875 C9.94263738 17.40477851 10.07064997 20.14139338 10 23 C9.34 23 8.68 23 8 23 C7.76216797 21.13794922 7.76216797 21.13794922 7.51953125 19.23828125 C7.28494786 17.59619755 7.04920978 15.95427852 6.8125 14.3125 C6.71130859 13.49587891 6.61011719 12.67925781 6.50585938 11.83789062 C5.66577163 6.22973732 4.44612588 3.57290967 0 0 Z " fill="#417F9E" transform="translate(35,328)"/>
<path d="M0 0 C2.14978703 2.32893595 2.96248682 3.77961005 3.5 6.9375 C2.84071734 10.97560631 1.05642079 12.40204233 -2 15 C-3 12 -3 12 -1.9375 9.5625 C-0.69747657 7.0383409 -0.69747657 7.0383409 -1.875 4.6875 C-2.24625 4.130625 -2.6175 3.57375 -3 3 C-2.01 2.01 -1.02 1.02 0 0 Z " fill="#2C4759" transform="translate(300,271)"/>
<path d="M0 0 C0.66 0.33 1.32 0.66 2 1 C2 2.65 2 4.3 2 6 C1.01 6.33 0.02 6.66 -1 7 C-3.83947527 12.24210819 -4.61167075 17.09471732 -5 23 C-5.33 23 -5.66 23 -6 23 C-6.8004834 13.54243692 -5.78136049 7.6224485 0 0 Z " fill="#40819D" transform="translate(339,294)"/>
<path d="M0 0 C0.66 0 1.32 0 2 0 C2.67404284 2.56076097 3.339414 5.12326583 4 7.6875 C4.19078125 8.40873047 4.3815625 9.12996094 4.578125 9.87304688 C5.54865428 13.66850961 6.24955239 17.04615439 6 21 C5.01 21 4.02 21 3 21 C3.020625 20.030625 3.04125 19.06125 3.0625 18.0625 C3.35618499 15.12534105 3.35618499 15.12534105 2 14 C1.79028092 12.40089201 1.6317933 10.79490754 1.5 9.1875 C1.23770892 6.01658817 0.85788192 3.06692788 0 0 Z " fill="#3D82A1" transform="translate(360,266)"/>
<path d="M0 0 C2.54472397 2.54472397 3.24821556 4.9426047 4.5 8.3125 C4.9228125 9.44300781 5.345625 10.57351563 5.78125 11.73828125 C6.1834375 12.81464844 6.585625 13.89101563 7 15 C7.66127071 16.66881493 8.32580605 18.336364 9 20 C6.32567644 18.99293255 5.20448428 18.37154659 3.8046875 15.828125 C3.49789062 14.97734375 3.19109375 14.1265625 2.875 13.25 C2.54886719 12.35796875 2.22273438 11.4659375 1.88671875 10.546875 C1.59410156 9.70640625 1.30148438 8.8659375 1 8 C0.566875 6.845 0.13375 5.69 -0.3125 4.5 C-1 2 -1 2 0 0 Z " fill="#4185A2" transform="translate(72,359)"/>
<path d="M0 0 C3.0412208 0.93098596 6.0670084 1.86768157 9.0625 2.9375 C9.0625 3.2675 9.0625 3.5975 9.0625 3.9375 C5.1025 3.6075 1.1425 3.2775 -2.9375 2.9375 C-3.35 3.906875 -3.7625 4.87625 -4.1875 5.875 C-5.9375 8.9375 -5.9375 8.9375 -8.125 9.8125 C-9.0221875 9.874375 -9.0221875 9.874375 -9.9375 9.9375 C-8.34320356 4.8647386 -5.84908651 -0.12444865 0 0 Z " fill="#485F6C" transform="translate(129.9375,240.0625)"/>
<path d="M0 0 C-0.33 0.99 -0.66 1.98 -1 3 C-8.425 4.485 -8.425 4.485 -16 6 C-11.60680304 1.60680304 -6.3818382 -2.39318933 0 0 Z " fill="#327D9F" transform="translate(140,163)"/>
<path d="M0 0 C2.475 0.495 2.475 0.495 5 1 C5 1.66 5 2.32 5 3 C5.66 3 6.32 3 7 3 C7 3.66 7 4.32 7 5 C9.64 5.33 12.28 5.66 15 6 C15 6.33 15 6.66 15 7 C17.64 7.33 20.28 7.66 23 8 C23 8.33 23 8.66 23 9 C15.23330638 9.57295281 9.43455908 8.80875756 3.39453125 3.62109375 C2.21477898 2.46116925 1.09916387 1.23655936 0 0 Z " fill="#4583A1" transform="translate(185,476)"/>
<path d="M0 0 C2.875 -0.125 2.875 -0.125 6 0 C6.66 0.66 7.32 1.32 8 2 C5.2092793 2.83661862 2.41751988 3.66942737 -0.375 4.5 C-1.1690625 4.73847656 -1.963125 4.97695313 -2.78125 5.22265625 C-3.92207031 5.56103516 -3.92207031 5.56103516 -5.0859375 5.90625 C-6.1385376 6.22045898 -6.1385376 6.22045898 -7.21240234 6.54101562 C-9 7 -9 7 -11 7 C-11 6.34 -11 5.68 -11 5 C-10.34 5 -9.68 5 -9 5 C-9 4.34 -9 3.68 -9 3 C-6.03 3.495 -6.03 3.495 -3 4 C-3 3.34 -3 2.68 -3 2 C-2.01 2 -1.02 2 0 2 C0 1.34 0 0.68 0 0 Z " fill="#425F6D" transform="translate(139,377)"/>
<path d="M0 0 C0.99 0.33 1.98 0.66 3 1 C2.38125 1.556875 1.7625 2.11375 1.125 2.6875 C-1.13345329 4.86788272 -1.13345329 4.86788272 -2.0625 7.6875 C-2.371875 8.450625 -2.68125 9.21375 -3 10 C-3.99 10.33 -4.98 10.66 -6 11 C-6.73323796 13.01508358 -6.73323796 13.01508358 -7 15 C-6.88098517 10.03383559 -6.76604648 6.91925578 -3.5 3 C-2.675 2.34 -1.85 1.68 -1 1 C-0.67 0.67 -0.34 0.34 0 0 Z " fill="#408BA7" transform="translate(268,166)"/>
<path d="M0 0 C0.66 0 1.32 0 2 0 C3.58667855 4.33692137 4.41774416 8.42513268 5 13 C5.20625 13.928125 5.4125 14.85625 5.625 15.8125 C6 18 6 18 5 20 C4.34 20 3.68 20 3 20 C2.49550598 17.41747107 1.99625699 14.83411297 1.5 12.25 C1.35691406 11.52039063 1.21382813 10.79078125 1.06640625 10.0390625 C0.41111121 6.60656468 0 3.50830509 0 0 Z " fill="#3F849F" transform="translate(337,272)"/>
<path d="M0 0 C0.66 0 1.32 0 2 0 C1.25 6.75 1.25 6.75 -1 9 C-3.1640625 9.1953125 -3.1640625 9.1953125 -5.625 9.125 C-6.44226563 9.10695313 -7.25953125 9.08890625 -8.1015625 9.0703125 C-8.72804688 9.04710937 -9.35453125 9.02390625 -10 9 C-7 7 -7 7 -5 7 C-4.67 6.01 -4.34 5.02 -4 4 C-3.01 3.34 -2.02 2.68 -1 2 C-0.67 1.34 -0.34 0.68 0 0 Z " fill="#213E50" transform="translate(284,374)"/>
<path d="M0 0 C2.29996485 1.72497364 3.81771456 3.04635934 4.37109375 5.94140625 C4.47137052 9.14436433 4.4571039 11.39052814 2.5 14 C2.005 14.33 1.51 14.66 1 15 C1.33 13.35 1.66 11.7 2 10 C1.34 9.67 0.68 9.34 0 9 C0.33 7.68 0.66 6.36 1 5 C0.34 5 -0.32 5 -1 5 C-0.67 3.35 -0.34 1.7 0 0 Z " fill="#E3F6F9" transform="translate(58,304)"/>
<path d="M0 0 C0.99 0.33 1.98 0.66 3 1 C1.54648985 2.98287496 0.08752713 4.96129387 -1.375 6.9375 C-1.7875 7.50146484 -2.2 8.06542969 -2.625 8.64648438 C-5.7734375 12.88671875 -5.7734375 12.88671875 -8 14 C-7.67 12.02 -7.34 10.04 -7 8 C-6.34 8 -5.68 8 -5 8 C-5 7.34 -5 6.68 -5 6 C-4.34 6 -3.68 6 -3 6 C-3 5.01 -3 4.02 -3 3 C-2.34 3 -1.68 3 -1 3 C-0.67 2.01 -0.34 1.02 0 0 Z " fill="#367CA0" transform="translate(340,401)"/>
<path d="M0 0 C6.625 0.75 6.625 0.75 10 3 C10.1875 5.625 10.1875 5.625 10 8 C9.67 7.34 9.34 6.68 9 6 C6.88672575 5.09274566 6.88672575 5.09274566 4.4375 4.375 C3.19806641 3.98441406 3.19806641 3.98441406 1.93359375 3.5859375 C1.29550781 3.39257812 0.65742188 3.19921875 0 3 C0 2.01 0 1.02 0 0 Z " fill="#28769B" transform="translate(333,375)"/>
<path d="M0 0 C3.58552881 1.63687185 4.79315055 2.68972583 7 6 C7.07905064 8.33199388 7.08798769 10.66832622 7 13 C6.67 13 6.34 13 6 13 C5.87625 12.030625 5.7525 11.06125 5.625 10.0625 C5.315625 8.5465625 5.315625 8.5465625 5 7 C4.34 6.67 3.68 6.34 3 6 C2.67 5.01 2.34 4.02 2 3 C0.741875 2.79375 -0.51625 2.5875 -1.8125 2.375 C-2.87404297 2.20097656 -2.87404297 2.20097656 -3.95703125 2.0234375 C-6.31755824 1.80422152 -6.31755824 1.80422152 -9 4 C-9.66 3.34 -10.32 2.68 -11 2 C-7.29361264 -0.47092491 -4.29830496 -0.55407837 0 0 Z " fill="#CFEFF5" transform="translate(359,302)"/>
<path d="M0 0 C0.33 1.65 0.66 3.3 1 5 C0.34 5 -0.32 5 -1 5 C-1.33 4.34 -1.66 3.68 -2 3 C-3.17755859 3.19916016 -3.17755859 3.19916016 -4.37890625 3.40234375 C-9.91187987 4.33242643 -15.44073841 5.24191887 -21 6 C-21 5.34 -21 4.68 -21 4 C-14.33328751 1.8787733 -7.02472289 0 0 0 Z " fill="#42849E" transform="translate(186,173)"/>
<path d="M0 0 C1.30120067 2.60240133 0.78052242 3.63132526 0.125 6.4375 C-1.06270244 11.93463631 -1.59522704 17.39709003 -2 23 C-2.33 23 -2.66 23 -3 23 C-4.13790836 14.7732301 -4.77138927 7.15708391 0 0 Z " fill="#3C7E9C" transform="translate(184,448)"/>
<path d="M0 0 C0.33 0.66 0.66 1.32 1 2 C2.32 1.67 3.64 1.34 5 1 C4.95875 2.03125 4.9175 3.0625 4.875 4.125 C4.99575149 7.86829627 5.64872018 10.53734547 7 14 C6.34 14.66 5.68 15.32 5 16 C4.1605118 13.89828133 3.32860344 11.79353375 2.5 9.6875 C2.0359375 8.51574219 1.571875 7.34398437 1.09375 6.13671875 C0 3 0 3 0 0 Z " fill="#3483A5" transform="translate(47,362)"/>
<path d="M0 0 C0.39872314 0.64743164 0.79744629 1.29486328 1.20825195 1.96191406 C2.80823484 4.17084826 2.80823484 4.17084826 5.17651367 4.54589844 C6.40978394 4.57731934 6.40978394 4.57731934 7.66796875 4.609375 C8.56064453 4.64160156 9.45332031 4.67382812 10.37304688 4.70703125 C11.30181641 4.72121094 12.23058594 4.73539062 13.1875 4.75 C14.12787109 4.77964844 15.06824219 4.80929687 16.03710938 4.83984375 C18.35815916 4.91053562 20.67820535 4.96323165 23 5 C23 5.33 23 5.66 23 6 C16.73 6 10.46 6 4 6 C3.67 7.32 3.34 8.64 3 10 C0.64551835 7.44931155 0.01672076 6.28982642 -0.1875 2.75 C-0.125625 1.8425 -0.06375 0.935 0 0 Z " fill="#556C77" transform="translate(220,290)"/>
<path d="M0 0 C2.08351615 3.58727128 2.80141379 7.20694042 3.625 11.25 C3.88539062 12.51328125 4.14578125 13.7765625 4.4140625 15.078125 C4.60742188 16.04234375 4.80078125 17.0065625 5 18 C4.01 17.67 3.02 17.34 2 17 C-0.69878212 11.60243576 -0.18824665 5.87747863 0 0 Z " fill="#3D829C" transform="translate(67,340)"/>
<path d="M0 0 C0 0.66 0 1.32 0 2 C-4.9221313 4.63365987 -9.57903298 6.64475824 -15 8 C-14.67 7.34 -14.34 6.68 -14 6 C-13.34 6 -12.68 6 -12 6 C-12 5.34 -12 4.68 -12 4 C-10.75539217 3.32332002 -9.50403104 2.65905281 -8.25 2 C-7.55390625 1.62875 -6.8578125 1.2575 -6.140625 0.875 C-4 0 -4 0 0 0 Z " fill="#3C829E" transform="translate(201,139)"/>
<path d="M0 0 C-1 3 -1 3 -3 4 C-3.680625 5.2065625 -3.680625 5.2065625 -4.375 6.4375 C-6.07868328 9.12407748 -7.08653091 9.89489103 -10 11 C-10.33 10.01 -10.66 9.02 -11 8 C-10.34 8 -9.68 8 -9 8 C-8.773125 7.4225 -8.54625 6.845 -8.3125 6.25 C-6.47530093 3.10051589 -3.84497849 0 0 0 Z " fill="#3C84A2" transform="translate(105,181)"/>
<path d="M0 0 C0 0.66 0 1.32 0 2 C2.31 2 4.62 2 7 2 C5 4 5 4 1.9609375 4.1953125 C0.77757812 4.17210937 -0.40578125 4.14890625 -1.625 4.125 C-2.81351563 4.10695313 -4.00203125 4.08890625 -5.2265625 4.0703125 C-6.14179688 4.04710937 -7.05703125 4.02390625 -8 4 C-6.27302455 0.54604909 -3.70696841 0 0 0 Z " fill="#227799" transform="translate(207,480)"/>
<path d="M0 0 C0.66 0.33 1.32 0.66 2 1 C1.65697965 6.98511371 1.17692157 11.75117306 -2 17 C-3.48717691 13.13334004 -2.34016247 10.79712698 -1 7 C-0.62468554 4.67305036 -0.28082798 2.34023315 0 0 Z " fill="#5891AA" transform="translate(377,308)"/>
<path d="M0 0 C0.99 0.33 1.98 0.66 3 1 C2.34 1.639375 1.68 2.27875 1 2.9375 C-1.68221553 7.04464253 -1.37381974 10.23379829 -1 15 C-1.99 14.67 -2.98 14.34 -4 14 C-4.29787234 5.21276596 -4.29787234 5.21276596 -2 1 C-1.34 0.67 -0.68 0.34 0 0 Z " fill="#2E7A9C" transform="translate(195,452)"/>
<path d="M0 0 C8.00945568 -0.30372936 14.69065285 -0.50848663 22 3 C21.34 3.66 20.68 4.32 20 5 C19.47792969 4.79503906 18.95585937 4.59007812 18.41796875 4.37890625 C12.29251368 2.13683951 6.49617989 1.35212938 0 1 C0 0.67 0 0.34 0 0 Z " fill="#45616F" transform="translate(197,272)"/>
<path d="M0 0 C0.66 0 1.32 0 2 0 C4.22532845 4.31975522 4.06433568 7.29918409 3 12 C2.34 12.66 1.68 13.32 1 14 C0.67 9.38 0.34 4.76 0 0 Z " fill="#45839B" transform="translate(142,440)"/>
<path d="M0 0 C0.33 0 0.66 0 1 0 C1.3125 2.8125 1.3125 2.8125 1 6 C-1.3125 7.625 -1.3125 7.625 -4 9 C-5.78344178 11.06954847 -5.78344178 11.06954847 -7 13 C-7.66 12.67 -8.32 12.34 -9 12 C-8.43410156 11.30132812 -7.86820312 10.60265625 -7.28515625 9.8828125 C-6.55167969 8.97273438 -5.81820313 8.06265625 -5.0625 7.125 C-4.33160156 6.22007812 -3.60070312 5.31515625 -2.84765625 4.3828125 C-0.9963748 2.15497253 -0.9963748 2.15497253 0 0 Z " fill="#4287A2" transform="translate(318,390)"/>
<path d="M0 0 C1.32 0 2.64 0 4 0 C3.3125 2.875 3.3125 2.875 2 6 C-0.625 7.375 -0.625 7.375 -3 8 C-2.45276317 4.62537285 -1.9451 2.91765 0 0 Z " fill="#297A9A" transform="translate(325,379)"/>
<path d="M0 0 C0.79560764 2.91499943 1.25322499 5.74561419 1.5625 8.75 C1.64628906 9.54921875 1.73007813 10.3484375 1.81640625 11.171875 C1.87699219 11.77515625 1.93757812 12.3784375 2 13 C1.01 13 0.02 13 -1 13 C-2.17664871 9.47005387 -2.19850603 6.70544587 -2 3 C-1.34 2.01 -0.68 1.02 0 0 Z " fill="#DBF4FA" transform="translate(195,155)"/>
<path d="M0 0 C0.825 0.825 1.65 1.65 2.5 2.5 C5.16275632 4.7614318 6.88440321 5.34355513 10.375 5.3125 C11.57125 5.209375 12.7675 5.10625 14 5 C13.67 5.66 13.34 6.32 13 7 C7.78020872 7.1799928 3.92737019 6.97094808 -1 5 C-0.67 3.35 -0.34 1.7 0 0 Z M-3 5 C-1 6 -1 6 -1 6 Z " fill="#23789A" transform="translate(194,467)"/>
<path d="M0 0 C0.33 1.32 0.66 2.64 1 4 C-2.96 5.98 -2.96 5.98 -7 8 C-7.33 7.01 -7.66 6.02 -8 5 C-4.04 2.525 -4.04 2.525 0 0 Z " fill="#3480A1" transform="translate(278,429)"/>
<path d="M0 0 C0.70125 0.721875 1.4025 1.44375 2.125 2.1875 C4.92770745 4.99823813 7.92262792 7.49516226 11 10 C10.34 10.66 9.68 11.32 9 12 C8.34 11.34 7.68 10.68 7 10 C6.34 10 5.68 10 5 10 C2 6.53846154 2 6.53846154 2 4 C1.34 3.67 0.68 3.34 0 3 C0 2.01 0 1.02 0 0 Z " fill="#2B4857" transform="translate(161,346)"/>
<path d="M0 0 C3.39325408 0.98969911 4.25957561 1.87760244 6 4.875 C5.67 5.535 5.34 6.195 5 6.875 C4.01 6.215 3.02 5.555 2 4.875 C2 4.215 2 3.555 2 2.875 C1.01 3.205 0.02 3.535 -1 3.875 C-1 3.215 -1 2.555 -1 1.875 C-2.65 1.875 -4.3 1.875 -6 1.875 C-3 -0.125 -3 -0.125 0 0 Z " fill="#4C6678" transform="translate(280,240.125)"/>
<path d="M0 0 C4.52615993 3.67832017 8.39424999 7.41086363 12 12 C9 12 9 12 6.5625 9.75 C5.716875 8.8425 4.87125 7.935 4 7 C3.236875 6.29875 2.47375 5.5975 1.6875 4.875 C0 3 0 3 0 0 Z " fill="#3A7D9A" transform="translate(312,189)"/>
<path d="M0 0 C6.78082192 3.16438356 6.78082192 3.16438356 9 6 C9 6.66 9 7.32 9 8 C5.625 7.375 5.625 7.375 2 6 C0.5625 2.875 0.5625 2.875 0 0 Z " fill="#1B7195" transform="translate(303,183)"/>
<path d="M0 0 C0.33 0.66 0.66 1.32 1 2 C0.67 2.66 0.34 3.32 0 4 C-0.07033769 5.87379605 -0.0843022 7.75001102 -0.0625 9.625 C-0.05347656 10.62789063 -0.04445312 11.63078125 -0.03515625 12.6640625 C-0.02355469 13.43492187 -0.01195312 14.20578125 0 15 C-2.2932034 12.2335959 -2.97822792 11.20320605 -3.375 7.5 C-2.99007552 3.90737156 -2.45622327 2.55856591 0 0 Z " fill="#DAF5FA" transform="translate(196,454)"/>
<path d="M0 0 C3 1 3 1 4.1875 2.75 C5.10819096 5.29960574 5.14948718 7.30923081 5 10 C4.34 10 3.68 10 3 10 C0.4606772 6.58168085 -0.3636198 4.24223102 0 0 Z " fill="#3982A0" transform="translate(372,297)"/>
<path d="M0 0 C2.64 0 5.28 0 8 0 C8.33 0.99 8.66 1.98 9 3 C11.31 3.33 13.62 3.66 16 4 C15.67 4.66 15.34 5.32 15 6 C10 4.33333333 5 2.66666667 0 1 C0 0.67 0 0.34 0 0 Z " fill="#3C5765" transform="translate(216,258)"/>
<path d="M0 0 C3 1 3 1 4.75 3.9375 C5.1625 4.948125 5.575 5.95875 6 7 C5.67 7.66 5.34 8.32 5 9 C4.01 9.33 3.02 9.66 2 10 C0.68373308 6.38026598 0 3.90432869 0 0 Z " fill="#3281A0" transform="translate(348,237)"/>
<path d="M0 0 C0.66 0.33 1.32 0.66 2 1 C2 1.99 2 2.98 2 4 C1.34 4 0.68 4 0 4 C-0.66 5.98 -1.32 7.96 -2 10 C-2.33 9.34 -2.66 8.68 -3 8 C-3.99 7.67 -4.98 7.34 -6 7 C-4.02 4.69 -2.04 2.38 0 0 Z " fill="#3085A9" transform="translate(89,193)"/>
<path d="M0 0 C0 0.66 0 1.32 0 2 C-5.22512279 3.46670113 -9.5814234 4.22577402 -15 4 C-15 3.67 -15 3.34 -15 3 C-13.02 3 -11.04 3 -9 3 C-9 2.34 -9 1.68 -9 1 C-5.8035914 -0.06546953 -3.34252724 -0.07427838 0 0 Z " fill="#528DAA" transform="translate(241,471)"/>
<path d="M0 0 C1.32 0.33 2.64 0.66 4 1 C3.67 1.66 3.34 2.32 3 3 C3.99 2.67 4.98 2.34 6 2 C6.99 3.32 7.98 4.64 9 6 C8.34 6 7.68 6 7 6 C6.67 6.66 6.34 7.32 6 8 C5.7525 7.38125 5.505 6.7625 5.25 6.125 C3.79371361 3.64931313 2.62187494 3.04874998 0 2 C0 1.34 0 0.68 0 0 Z " fill="#3585A7" transform="translate(77,417)"/>
<path d="M0 0 C0.99 0.66 1.98 1.32 3 2 C1.71372289 3.17260611 0.42080217 4.3379283 -0.875 5.5 C-1.59429687 6.1496875 -2.31359375 6.799375 -3.0546875 7.46875 C-5 9 -5 9 -7 9 C-7 7.68 -7 6.36 -7 5 C-5.824375 4.87625 -5.824375 4.87625 -4.625 4.75 C-1.85250896 4.27193661 -1.85250896 4.27193661 -0.6875 1.9375 C-0.460625 1.298125 -0.23375 0.65875 0 0 Z " fill="#345669" transform="translate(294,285)"/>
<path d="M0 0 C0.66 0 1.32 0 2 0 C1.98259766 0.90492188 1.98259766 0.90492188 1.96484375 1.828125 C1.95582031 2.62734375 1.94679687 3.4265625 1.9375 4.25 C1.92589844 5.03890625 1.91429687 5.8278125 1.90234375 6.640625 C1.99614694 8.90691002 2.36758937 10.8288895 3 13 C2.34 13 1.68 13 1 13 C-1.11295256 9.83057116 -1.25250929 9.00370047 -1.1875 5.375 C-1.17783203 4.18003906 -1.17783203 4.18003906 -1.16796875 2.9609375 C-1 1 -1 1 0 0 Z " fill="#2B7A97" transform="translate(192,156)"/>
<path d="M0 0 C2.97 0.33 5.94 0.66 9 1 C9.33 1.99 9.66 2.98 10 4 C7.21571665 4.77341204 5.52724898 5.17574966 2.75 4.25 C1 3 1 3 0 0 Z " fill="#2F819F" transform="translate(121,453)"/>
<path d="M0 0 C0.33 0 0.66 0 1 0 C1.27429625 5.39449293 1.36055646 8.51925805 -2 13 C-3.32 12.34 -4.64 11.68 -6 11 C-4.7934375 9.948125 -4.7934375 9.948125 -3.5625 8.875 C-0.76566189 5.73708407 -0.28691249 4.11241237 0 0 Z " fill="#337F9F" transform="translate(62,310)"/>
<path d="M0 0 C0.99 0.66 1.98 1.32 3 2 C1.62845496 4.95409701 0.01136276 7.44008376 -2 10 C-3.39195915 5.82412255 -1.82323219 3.86525224 0 0 Z " fill="#19404D" transform="translate(169,293)"/>
<path d="M0 0 C1.72357119 2.58535679 2.44735018 4.03811614 3.1875 6.9375 C3.36667969 7.60652344 3.54585937 8.27554688 3.73046875 8.96484375 C4.03268678 11.24680888 3.68756692 12.82026659 3 15 C0.64551908 12.64551908 0.66383254 11.844948 0.375 8.625 C0.30023438 7.85414063 0.22546875 7.08328125 0.1484375 6.2890625 C0.01274359 4.19651952 0 2.096938 0 0 Z " fill="#506376" transform="translate(228,218)"/>
<path d="M0 0 C1.31223496 3.93670488 0.24296256 6.12488144 -1 10 C-3 8 -3 8 -3.125 4.375 C-3.08375 3.26125 -3.0425 2.1475 -3 1 C-2.01 0.67 -1.02 0.34 0 0 Z " fill="#3A4E5F" transform="translate(230,397)"/>
<path d="M0 0 C0.99 0 1.98 0 3 0 C1.87548273 2.9719385 0.77706209 5.33440687 -1 8 C-3.475 7.01 -3.475 7.01 -6 6 C-4.68 5.67 -3.36 5.34 -2 5 C-2 4.01 -2 3.02 -2 2 C-1.34 2 -0.68 2 0 2 C0 1.34 0 0.68 0 0 Z " fill="#0D6F99" transform="translate(41,322)"/>
<path d="M0 0 C0.66 0 1.32 0 2 0 C2 0.66 2 1.32 2 2 C3.32 1.67 4.64 1.34 6 1 C5.67 3.31 5.34 5.62 5 8 C2.5 5.6875 2.5 5.6875 0 3 C0 2.01 0 1.02 0 0 Z " fill="#2C7C9F" transform="translate(66,401)"/>
<path d="M0 0 C1.99609375 0.234375 1.99609375 0.234375 4.4375 0.75 C5.24058594 0.90984375 6.04367187 1.0696875 6.87109375 1.234375 C9 2 9 2 11 5 C10.37351562 4.84402344 9.74703125 4.68804687 9.1015625 4.52734375 C8.28429687 4.33269531 7.46703125 4.13804687 6.625 3.9375 C5.81289063 3.74027344 5.00078125 3.54304688 4.1640625 3.33984375 C1.95838716 2.77890681 1.95838716 2.77890681 0 4 C-0.33 3.01 -0.66 2.02 -1 1 C-0.67 0.67 -0.34 0.34 0 0 Z " fill="#415C6E" transform="translate(252,374)"/>
<path d="M0 0 C0.99 0.495 0.99 0.495 2 1 C2 1.66 2 2.32 2 3 C3.32 3.66 4.64 4.32 6 5 C6 5.66 6 6.32 6 7 C6.66 7 7.32 7 8 7 C8 8.98 8 10.96 8 13 C7.34 11.68 6.68 10.36 6 9 C5.34 9 4.68 9 4 9 C3.896875 8.401875 3.79375 7.80375 3.6875 7.1875 C2.90614947 4.70138466 1.85104584 3.77056558 0 2 C0 1.34 0 0.68 0 0 Z " fill="#567280" transform="translate(295,336)"/>
<path d="M0 0 C0.99 0.99 1.98 1.98 3 3 C2 4 2 4 0.15234375 4.09765625 C-1.8984375 4.06510417 -3.94921875 4.03255208 -6 4 C-6.33 3.34 -6.66 2.68 -7 2 C-4.69 1.34 -2.38 0.68 0 0 Z " fill="#0A74A6" transform="translate(361,328)"/>
<path d="M0 0 C1.65 0.33 3.3 0.66 5 1 C2.03 4.96 2.03 4.96 -1 9 C-1.66 8.01 -2.32 7.02 -3 6 C-2.34 6 -1.68 6 -1 6 C-0.67 4.02 -0.34 2.04 0 0 Z " fill="#214050" transform="translate(163,269)"/>
<path d="M0 0 C0.99 0.33 1.98 0.66 3 1 C3.33 2.98 3.66 4.96 4 7 C4.66 7 5.32 7 6 7 C6 8.98 6 10.96 6 13 C3.87838666 10.87838666 3.07013751 9.2266841 1.875 6.5 C1.52179688 5.7059375 1.16859375 4.911875 0.8046875 4.09375 C0 2 0 2 0 0 Z " fill="#4E85AB" transform="translate(328,250)"/>
<path d="M0 0 C-0.8125 1.9375 -0.8125 1.9375 -2 4 C-2.99 4.33 -3.98 4.66 -5 5 C-5 5.66 -5 6.32 -5 7 C-6.32 7.33 -7.64 7.66 -9 8 C-9 7.01 -9 6.02 -9 5 C-7.35 4.67 -5.7 4.34 -4 4 C-4 3.01 -4 2.02 -4 1 C-2 0 -2 0 0 0 Z " fill="#3D82A4" transform="translate(314,433)"/>
<path d="M0 0 C0.66 0.33 1.32 0.66 2 1 C0.92598892 3.91517292 0.22189824 5.77810176 -2 8 C-2.12375 7.360625 -2.2475 6.72125 -2.375 6.0625 C-2.684375 5.0415625 -2.684375 5.0415625 -3 4 C-3.66 3.67 -4.32 3.34 -5 3 C-3.35 2.67 -1.7 2.34 0 2 C0 1.34 0 0.68 0 0 Z " fill="#317FA2" transform="translate(345,392)"/>
<path d="M0 0 C-1 3 -1 3 -4 5 C-6.6875 5.125 -6.6875 5.125 -9 5 C-9 4.34 -9 3.68 -9 3 C-2.25 0 -2.25 0 0 0 Z " fill="#314A5C" transform="translate(250,378)"/>
<path d="M0 0 C0.99 0.33 1.98 0.66 3 1 C0.14723863 3.93200474 -2.65079784 6.64315404 -6 9 C-5.52797514 4.75177626 -3.03344482 2.80010291 0 0 Z " fill="#DBE7ED" transform="translate(180,277)"/>
<path d="M0 0 C2.39489543 0.74324341 3.70777616 1.47057354 4.93359375 3.69140625 C5.67219923 5.44073501 6.34049685 7.21934149 7 9 C6.01 9.495 6.01 9.495 5 10 C4.16121545 8.71186658 3.32913217 7.41936744 2.5 6.125 C2.0359375 5.40570313 1.571875 4.68640625 1.09375 3.9453125 C0 2 0 2 0 0 Z " fill="#367E9D" transform="translate(319,234)"/>
<path d="M0 0 C1.33855056 0.78281305 2.67073644 1.57651877 4 2.375 C5.11375 3.03628906 5.11375 3.03628906 6.25 3.7109375 C6.8275 4.13632812 7.405 4.56171875 8 5 C8 5.66 8 6.32 8 7 C8.66 7.33 9.32 7.66 10 8 C6.31137465 7.50153711 4.31453856 6.9758353 2 4 C1.31861494 2.67412798 0.6500188 1.34152815 0 0 Z " fill="#5692A8" transform="translate(112,417)"/>
<path d="M0 0 C0.66 1.32 1.32 2.64 2 4 C-0.97 6.475 -0.97 6.475 -4 9 C-4.33 7.35 -4.66 5.7 -5 4 C-4.34 3.67 -3.68 3.34 -3 3 C-2.01 3.33 -1.02 3.66 0 4 C0 2.68 0 1.36 0 0 Z " fill="#377EA6" transform="translate(330,413)"/>
<path d="M0 0 C0 0.33 0 0.66 0 1 C-0.93972656 1.19916016 -0.93972656 1.19916016 -1.8984375 1.40234375 C-3.12433594 1.66724609 -3.12433594 1.66724609 -4.375 1.9375 C-5.18710937 2.11152344 -5.99921875 2.28554688 -6.8359375 2.46484375 C-9.029463 2.92330693 -9.029463 2.92330693 -11 4 C-11.33 2.68 -11.66 1.36 -12 0 C-7.74433453 -1.16063604 -4.3164922 -0.76173392 0 0 Z " fill="#137196" transform="translate(55,300)"/>
<path d="M0 0 C0.66 0 1.32 0 2 0 C2.25 2.3125 2.25 2.3125 2 5 C0 6.8125 0 6.8125 -2 8 C-1.125 1.125 -1.125 1.125 0 0 Z " fill="#27475B" transform="translate(114,259)"/>
<path d="M0 0 C1.98362069 2.91708924 1.9876191 4.12380904 1.625 7.75 C1.41875 8.8225 1.2125 9.895 1 11 C0.34 11 -0.32 11 -1 11 C-1.33 11.99 -1.66 12.98 -2 14 C-1.85795259 12.41632253 -1.71119847 10.83306682 -1.5625 9.25 C-1.48128906 8.36828125 -1.40007812 7.4865625 -1.31640625 6.578125 C-1.03761535 4.30649548 -0.61209423 2.20148177 0 0 Z " fill="#4F6472" transform="translate(178,219)"/>
<path d="M0 0 C2.31 0.33 4.62 0.66 7 1 C7.66 2.65 8.32 4.3 9 6 C5.06326356 4.68775452 2.77280706 3.08089673 0 0 Z " fill="#3C83A6" transform="translate(275,193)"/>
<path d="M0 0 C0.66 0 1.32 0 2 0 C1.67 0.99 1.34 1.98 1 3 C-1.06640625 3.94921875 -1.06640625 3.94921875 -3.5625 4.6875 C-4.38878906 4.93886719 -5.21507812 5.19023437 -6.06640625 5.44921875 C-6.70449219 5.63097656 -7.34257812 5.81273437 -8 6 C-8 5.01 -8 4.02 -8 3 C-5.36 2.67 -2.72 2.34 0 2 C0 1.34 0 0.68 0 0 Z " fill="#4789A3" transform="translate(277,457)"/>
<path d="M0 0 C2.64 0 5.28 0 8 0 C8.33 0.66 8.66 1.32 9 2 C5.37 2.33 1.74 2.66 -2 3 C-1.34 2.67 -0.68 2.34 0 2 C0 1.34 0 0.68 0 0 Z " fill="#1D7293" transform="translate(198,449)"/>
<path d="M0 0 C0.99 0 1.98 0 3 0 C3 0.99 3 1.98 3 3 C3.66 3 4.32 3 5 3 C5 4.65 5 6.3 5 8 C2.20127563 5.47211993 0.54226981 3.79588866 0 0 Z " fill="#3682A3" transform="translate(60,392)"/>
<path d="M0 0 C-0.33 0.99 -0.66 1.98 -1 3 C-3.31 3.33 -5.62 3.66 -8 4 C-8.33 3.01 -8.66 2.02 -9 1 C-2.25 0 -2.25 0 0 0 Z " fill="#264453" transform="translate(219,347)"/>
<path d="M0 0 C0.66 0.33 1.32 0.66 2 1 C4.09821215 0.60061233 4.09821215 0.60061233 6 0 C6 1.98 6 3.96 6 6 C2.535 4.02 2.535 4.02 -1 2 C-0.67 1.34 -0.34 0.68 0 0 Z " fill="#284756" transform="translate(214,289)"/>
<path d="M0 0 C0.66 0 1.32 0 2 0 C0.64978174 4.41889613 -1.26115668 6.34345343 -5 9 C-5 8.01 -5 7.02 -5 6 C-4.34 6 -3.68 6 -3 6 C-2.690625 5.195625 -2.38125 4.39125 -2.0625 3.5625 C-1 1 -1 1 0 0 Z " fill="#4C8DA3" transform="translate(222,172)"/>
<path d="M0 0 C-0.33 2.31 -0.66 4.62 -1 7 C-1.99 6.67 -2.98 6.34 -4 6 C-4 5.34 -4 4.68 -4 4 C-4.66 3.67 -5.32 3.34 -6 3 C-2.25 0 -2.25 0 0 0 Z " fill="#0B6F95" transform="translate(135,433)"/>
<path d="M0 0 C2.375 -0.1875 2.375 -0.1875 5 0 C5.66 0.99 6.32 1.98 7 3 C5.35 3.33 3.7 3.66 2 4 C1.34 2.68 0.68 1.36 0 0 Z " fill="#1F3A50" transform="translate(123,379)"/>
<path d="M0 0 C-0.66 0 -1.32 0 -2 0 C-2 0.66 -2 1.32 -2 2 C-4.64 2 -7.28 2 -10 2 C-10 1.34 -10 0.68 -10 0 C-6.33694766 -0.74926071 -3.57644848 -1.2380014 0 0 Z " fill="#BDE3EC" transform="translate(58,321)"/>
<path d="M0 0 C0.66 0 1.32 0 2 0 C2 0.66 2 1.32 2 2 C3.65 2.33 5.3 2.66 7 3 C7 3.66 7 4.32 7 5 C7.66 5.33 8.32 5.66 9 6 C6.75 6.3125 6.75 6.3125 4 6 C0 1.78378378 0 1.78378378 0 0 Z " fill="#337B96" transform="translate(186,176)"/>
<path d="M0 0 C1.32 0.66 2.64 1.32 4 2 C3.01 3.32 2.02 4.64 1 6 C-0.32 5.67 -1.64 5.34 -3 5 C-2.34 5 -1.68 5 -1 5 C-0.67 3.35 -0.34 1.7 0 0 Z " fill="#0974A0" transform="translate(213,169)"/>
<path d="M0 0 C3.63 0.33 7.26 0.66 11 1 C11 1.33 11 1.66 11 2 C10.38511719 2.04898438 9.77023438 2.09796875 9.13671875 2.1484375 C8.32847656 2.22320312 7.52023438 2.29796875 6.6875 2.375 C5.48673828 2.47941406 5.48673828 2.47941406 4.26171875 2.5859375 C1.72775559 2.89564426 1.72775559 2.89564426 -1 5 C-0.67 3.35 -0.34 1.7 0 0 Z " fill="#3484A0" transform="translate(196,150)"/>
<path d="M0 0 C0.99 0.33 1.98 0.66 3 1 C2.19152271 2.16945792 1.37810888 3.33550461 0.5625 4.5 C0.11003906 5.1496875 -0.34242188 5.799375 -0.80859375 6.46875 C-1.20175781 6.9740625 -1.59492188 7.479375 -2 8 C-2.33 8 -2.66 8 -3 8 C-3 6.35 -3 4.7 -3 3 C-2.34 3 -1.68 3 -1 3 C-0.67 2.01 -0.34 1.02 0 0 Z " fill="#4F8EAA" transform="translate(340,401)"/>
<path d="M0 0 C0 3 0 3 -1.1875 4.6875 C-3.55741722 6.40364695 -5.14025666 6.23187108 -8 6 C-5.38485683 3.87961365 -2.80362384 1.86908256 0 0 Z " fill="#284855" transform="translate(236,356)"/>
<path d="M0 0 C2.475 0.495 2.475 0.495 5 1 C5.33 2.65 5.66 4.3 6 6 C4.68 6 3.36 6 2 6 C1.34 4.02 0.68 2.04 0 0 Z " fill="#0A2E46" transform="translate(283,329)"/>
<path d="M0 0 C2 1.5 2 1.5 4 4 C4.35800135 6.75871627 4.18660165 9.20097524 4 12 C3.67 12 3.34 12 3 12 C3 10.02 3 8.04 3 6 C2.34 6 1.68 6 1 6 C0.67 4.02 0.34 2.04 0 0 Z " fill="#B6DEEA" transform="translate(210,154)"/>
<path d="M0 0 C-2.98646769 1.99097846 -5.59687262 2.94124926 -9 4 C-9 3.01 -9 2.02 -9 1 C-6.04335481 -0.4783226 -3.25770263 -0.06032783 0 0 Z " fill="#4E93AC" transform="translate(269,463)"/>
<path d="M0 0 C1.65 0.33 3.3 0.66 5 1 C5.33 2.65 5.66 4.3 6 6 C2.535 4.02 2.535 4.02 -1 2 C-0.67 1.34 -0.34 0.68 0 0 Z " fill="#2F7F9F" transform="translate(207,450)"/>
<path d="M0 0 C-0.61875 0.0825 -1.2375 0.165 -1.875 0.25 C-4.18437567 0.81258459 -4.18437567 0.81258459 -5.25 3.0625 C-5.4975 3.701875 -5.745 4.34125 -6 5 C-6.33 4.34 -6.66 3.68 -7 3 C-9.02463255 2.34786708 -9.02463255 2.34786708 -11 2 C-9.54494642 1.47007308 -8.08581873 0.9513211 -6.625 0.4375 C-5.81289062 0.14746094 -5.00078125 -0.14257812 -4.1640625 -0.44140625 C-2 -1 -2 -1 0 0 Z " fill="#448BAA" transform="translate(256,442)"/>
<path d="M0 0 C1.32 0 2.64 0 4 0 C6.25 2.5 6.25 2.5 8 5 C7.01 5.33 6.02 5.66 5 6 C3.35 4.02 1.7 2.04 0 0 Z " fill="#0D6C92" transform="translate(108,417)"/>
<path d="M0 0 C0.99 0.99 1.98 1.98 3 3 C1.68 4.32 0.36 5.64 -1 7 C-1.66 6.67 -2.32 6.34 -3 6 C-2.01 4.02 -1.02 2.04 0 0 Z " fill="#247CA4" transform="translate(93,398)"/>
<path d="M0 0 C1.32 0 2.64 0 4 0 C4 0.66 4 1.32 4 2 C5.32 2 6.64 2 8 2 C8.33 2.99 8.66 3.98 9 5 C2.25 3.375 2.25 3.375 0 0 Z " fill="#3D83A1" transform="translate(340,329)"/>
<path d="M0 0 C2.31 1.98 4.62 3.96 7 6 C5.68 6.33 4.36 6.66 3 7 C1.25 5.8125 1.25 5.8125 0 4 C0 2.68 0 1.36 0 0 Z " fill="#22424F" transform="translate(184,325)"/>
<path d="M0 0 C0.99 1.32 1.98 2.64 3 4 C2.34 4.66 1.68 5.32 1 6 C0.34 5.67 -0.32 5.34 -1 5 C-1.33 5.66 -1.66 6.32 -2 7 C-2.33 5.68 -2.66 4.36 -3 3 C-2.34 3 -1.68 3 -1 3 C-0.67 2.01 -0.34 1.02 0 0 Z " fill="#2D84AA" transform="translate(339,321)"/>
<path d="M0 0 C0 3.20395416 -0.74335022 5.09399739 -2 8 C-2.99 8 -3.98 8 -5 8 C-3.8141763 4.62496331 -2.72426311 2.35277269 0 0 Z " fill="#5296AE" transform="translate(37,293)"/>
<path d="M0 0 C1.32 0 2.64 0 4 0 C4 0.66 4 1.32 4 2 C4.99 2.33 5.98 2.66 7 3 C6.01 4.485 6.01 4.485 5 6 C3.35 4.02 1.7 2.04 0 0 Z " fill="#425A66" transform="translate(118,292)"/>
<path d="M0 0 C1.95775078 2.93662616 2.56073149 4.5737056 3 8 C2.67 8.66 2.34 9.32 2 10 C1.34 10 0.68 10 0 10 C0 6.7 0 3.4 0 0 Z " fill="#327995" transform="translate(340,282)"/>
<path d="M0 0 C1 2 1 2 0.375 4.0625 C-1 6 -1 6 -3.625 6.75 C-4.800625 6.87375 -4.800625 6.87375 -6 7 C-4.02 4.69 -2.04 2.38 0 0 Z " fill="#224151" transform="translate(179,281)"/>
<path d="M0 0 C0.33 0.66 0.66 1.32 1 2 C1.99 1.67 2.98 1.34 4 1 C4 2.65 4 4.3 4 6 C0.535 4.02 0.535 4.02 -3 2 C-2.01 1.34 -1.02 0.68 0 0 Z " fill="#324C54" transform="translate(234,263)"/>
<path d="M0 0 C0.66 0.33 1.32 0.66 2 1 C2 2.32 2 3.64 2 5 C-0.64 5 -3.28 5 -6 5 C-5.01 4.34 -4.02 3.68 -3 3 C-1.98131338 2.01904252 -0.97648017 1.02297922 0 0 Z " fill="#3D5769" transform="translate(158,244)"/>
<path d="M0 0 C0.8125 1.6875 0.8125 1.6875 1 4 C-1.4375 6.75 -1.4375 6.75 -4 9 C-3.35455571 5.51460083 -1.89865603 2.97180943 0 0 Z " fill="#47829C" transform="translate(84,238)"/>
<path d="M0 0 C2.72426311 2.35277269 3.8141763 4.62496331 5 8 C2.525 7.01 2.525 7.01 0 6 C0 4.02 0 2.04 0 0 Z " fill="#4587A4" transform="translate(341,223)"/>
<path d="M0 0 C2.5363613 1.01454452 3.79351461 1.6853556 5.3125 4 C5.539375 4.66 5.76625 5.32 6 6 C5.67 6.66 5.34 7.32 5 8 C0 2.25 0 2.25 0 0 Z " fill="#4788A8" transform="translate(308,220)"/>
<path d="M0 0 C0.33 1.65 0.66 3.3 1 5 C0.34 5 -0.32 5 -1 5 C-1.33 4.34 -1.66 3.68 -2 3 C-4.31 3 -6.62 3 -9 3 C-5.87496336 0.91664224 -3.72863529 0 0 0 Z " fill="#488DAB" transform="translate(186,173)"/>
<path d="M0 0 C0.33 0 0.66 0 1 0 C1.49230769 7.38461538 1.49230769 7.38461538 -1 10.5 C-1.66 10.995 -2.32 11.49 -3 12 C-2.125 8.125 -2.125 8.125 -1 7 C-0.63239269 4.67182036 -0.29758419 2.3381615 0 0 Z " fill="#B0D8E5" transform="translate(213,458)"/>
<path d="M0 0 C1.65 0 3.3 0 5 0 C2.31158141 2.25245881 0.35358125 3.88213958 -3 5 C-3.33 4.34 -3.66 3.68 -4 3 C-2.68 2.67 -1.36 2.34 0 2 C0 1.34 0 0.68 0 0 Z " fill="#3E859E" transform="translate(296,445)"/>
<path d="M0 0 C0.66 0.66 1.32 1.32 2 2 C1.67 2.66 1.34 3.32 1 4 C1.66 4.33 2.32 4.66 3 5 C2.01 5.33 1.02 5.66 0 6 C-0.99 4.68 -1.98 3.36 -3 2 C-2.01 1.34 -1.02 0.68 0 0 Z " fill="#3085AA" transform="translate(76,411)"/>
<path d="M0 0 C0.33 0.99 0.66 1.98 1 3 C-0.4375 5.1875 -0.4375 5.1875 -2 7 C-2.66 6.67 -3.32 6.34 -4 6 C-3.67 4.35 -3.34 2.7 -3 1 C-2.01 1.33 -1.02 1.66 0 2 C0 1.34 0 0.68 0 0 Z " fill="#4F6777" transform="translate(227,410)"/>
<path d="M0 0 C-0.33 0.99 -0.66 1.98 -1 3 C-3.31 3.33 -5.62 3.66 -8 4 C-8 3.01 -8 2.02 -8 1 C-5.07175348 0.02391783 -3.04386724 -0.08226668 0 0 Z " fill="#3E5565" transform="translate(156,374)"/>
<path d="M0 0 C2.31 0.66 4.62 1.32 7 2 C7 2.66 7 3.32 7 4 C2.44615385 4.36923077 2.44615385 4.36923077 0.1875 2.5 C-0.4003125 1.7575 -0.4003125 1.7575 -1 1 C-0.67 0.67 -0.34 0.34 0 0 Z " fill="#D8E6EB" transform="translate(194,331)"/>
<path d="M0 0 C3.68754757 0.49831724 5.60490662 1.10067643 8 4 C7.01 4.33 6.02 4.66 5 5 C3.35 3.35 1.7 1.7 0 0 Z " fill="#2F809A" transform="translate(35,328)"/>
<path d="M0 0 C2.31 0.66 4.62 1.32 7 2 C6.67 2.99 6.34 3.98 6 5 C1.125 2.25 1.125 2.25 0 0 Z " fill="#327C9B" transform="translate(287,201)"/>
<path d="M0 0 C0.33 0 0.66 0 1 0 C1.35233161 5.37305699 1.35233161 5.37305699 1 8 C-1 10 -1 10 -3 11 C-3 10.01 -3 9.02 -3 8 C-2.34 8 -1.68 8 -1 8 C-0.67 5.36 -0.34 2.72 0 0 Z " fill="#E0F9FD" transform="translate(212,160)"/>
<path d="M0 0 C0.66 0.33 1.32 0.66 2 1 C1.01 2.32 0.02 3.64 -1 5 C-2.32 4.34 -3.64 3.68 -5 3 C-2.625 1.4375 -2.625 1.4375 0 0 Z " fill="#428DA7" transform="translate(144,158)"/>
</svg>
