<?xml version="1.0" encoding="UTF-8"?>
<svg version="1.1" xmlns="http://www.w3.org/2000/svg" width="500" height="500">
<path d="M0 0 C1.09852295 0.4942749 1.09852295 0.4942749 2.21923828 0.99853516 C19.27096499 8.68747295 37.92165557 17.40698549 52 30 C52 30.66 52 31.32 52 32 C52.56203125 32.2578125 53.1240625 32.515625 53.703125 32.78125 C56.26704579 34.14169777 58.45226365 35.72788962 60.75 37.5 C61.54921875 38.1084375 62.3484375 38.716875 63.171875 39.34375 C63.77515625 39.8903125 64.3784375 40.436875 65 41 C65 41.66 65 42.32 65 43 C65.66 43 66.32 43 67 43 C67 43.66 67 44.32 67 45 C67.56203125 45.2371875 68.1240625 45.474375 68.703125 45.71875 C71.51894042 47.28947697 73.47955416 49.21471464 75.75 51.5 C76.54921875 52.2940625 77.3484375 53.088125 78.171875 53.90625 C80 56 80 56 80 58 C80.56203125 58.2165625 81.1240625 58.433125 81.703125 58.65625 C84.77036765 60.45069128 86.52660572 62.73892214 88.75 65.5 C89.54921875 66.4796875 90.3484375 67.459375 91.171875 68.46875 C93 71 93 71 93 73 C93.66 73 94.32 73 95 73 C98.30047906 77.10565088 101.12321585 81.58963606 104 86 C104.44085938 86.67450195 104.88171875 87.34900391 105.3359375 88.04394531 C116.05124276 104.60466637 124.75693618 122.27555251 131 141 C131.21462891 141.63728027 131.42925781 142.27456055 131.65039062 142.93115234 C150.48181937 199.89480198 145.89532157 263.33584192 119 317 C113.41973191 327.91846496 107.52829553 338.29409832 100 348 C98.68458714 349.85210131 97.37214244 351.70631387 96.0625 353.5625 C92.6021312 358.34110454 88.807402 362.69189322 84.78515625 367.00390625 C82.95116302 368.87859345 82.95116302 368.87859345 82 371 C81.34 371 80.68 371 80 371 C79.67 371.99 79.34 372.98 79 374 C78.34 374 77.68 374 77 374 C77 374.66 77 375.32 77 376 C76.34 376 75.68 376 75 376 C74.67 376.99 74.34 377.98 74 379 C73.34 379 72.68 379 72 379 C72 379.66 72 380.32 72 381 C71.34 381 70.68 381 70 381 C69.67 381.99 69.34 382.98 69 384 C68.34 384 67.68 384 67 384 C67 384.66 67 385.32 67 386 C64.9535512 387.7709653 62.90021226 389.42563801 60.75 391.0625 C60.11682861 391.55129639 59.48365723 392.04009277 58.83129883 392.54370117 C56.89280846 394.0361715 54.94723397 395.51896293 53 397 C52.44038574 397.42861328 51.88077148 397.85722656 51.30419922 398.29882812 C33.40800562 412 33.40800562 412 29 412 C29 412.66 29 413.32 29 414 C26.17550624 415.41224688 23.35056448 416.8234953 20.5234375 418.23046875 C18.27013498 419.36211625 16.02444705 420.50913895 13.7890625 421.67578125 C-1.43042809 429.53858221 -17.37445439 435.83672075 -34 440 C-34.85980469 440.21785156 -35.71960938 440.43570312 -36.60546875 440.66015625 C-61.08279582 446.70180962 -85.91392356 447.96568239 -111 446 C-111.76135254 445.94328125 -112.52270508 445.8865625 -113.30712891 445.828125 C-138.35990259 443.82526869 -163.34837459 436.78191157 -186 426 C-186.69496582 425.66935547 -187.38993164 425.33871094 -188.10595703 424.99804688 C-192.77669368 422.74345609 -197.39353611 420.38265374 -202 418 C-202.97694824 417.49774902 -202.97694824 417.49774902 -203.97363281 416.98535156 C-214.99190066 411.25718312 -224.88931862 404.28792939 -234.73388672 396.73730469 C-236.33673177 395.50849135 -237.94868157 394.29151154 -239.56689453 393.08300781 C-240.3917334 392.46006836 -241.21657227 391.83712891 -242.06640625 391.1953125 C-242.81994385 390.63086426 -243.57348145 390.06641602 -244.34985352 389.48486328 C-244.89440186 388.9948584 -245.4389502 388.50485352 -246 388 C-246 387.34 -246 386.68 -246 386 C-246.58555664 385.73896484 -247.17111328 385.47792969 -247.77441406 385.20898438 C-250.13607992 383.92607857 -251.70913291 382.54932909 -253.609375 380.65625 C-254.27839844 379.99125488 -254.94742188 379.32625977 -255.63671875 378.64111328 C-256.33410156 377.9345459 -257.03148437 377.22797852 -257.75 376.5 C-258.46285156 375.78183105 -259.17570312 375.06366211 -259.91015625 374.32373047 C-274 359.97952254 -274 359.97952254 -274 356 C-274.66 356 -275.32 356 -276 356 C-299.93439823 325.99345 -316.56218527 286.83493632 -322 249 C-322.10151367 248.33419922 -322.20302734 247.66839844 -322.30761719 246.98242188 C-330.90199153 188.90939399 -315.59600924 126.62637233 -280.85668945 79.32495117 C-276.56002323 73.60184056 -272.03412184 68.09940332 -267.33984375 62.69921875 C-265.77577528 60.89492608 -264.26690022 59.04133105 -262.81640625 57.14453125 C-262.21699219 56.43683594 -261.61757813 55.72914062 -261 55 C-260.34 55 -259.68 55 -259 55 C-259 54.34 -259 53.68 -259 53 C-257.625 51.375 -257.625 51.375 -256 50 C-255.34 50 -254.68 50 -254 50 C-254 49.34 -254 48.68 -254 48 C-252.70703125 46.66015625 -252.70703125 46.66015625 -250.8125 45.0625 C-250.07257813 44.43730469 -249.33265625 43.81210938 -248.5703125 43.16796875 C-247.72210938 42.45253906 -246.87390625 41.73710938 -246 41 C-245.08992188 40.19175781 -244.17984375 39.38351563 -243.2421875 38.55078125 C-230.10949535 26.96817735 -215.44327469 17.22422912 -200 9 C-198.92105469 8.41992188 -197.84210938 7.83984375 -196.73046875 7.2421875 C-174.16299704 -4.47503297 -150.03133694 -11.81503249 -125 -16 C-124.30503418 -16.11859375 -123.61006836 -16.2371875 -122.89404297 -16.359375 C-82.84299882 -22.85570656 -36.83952674 -17.03992378 0 0 Z " fill="#626262" transform="translate(342,33)"/>
<path d="M0 0 C1.93141846 0.01740234 1.93141846 0.01740234 3.90185547 0.03515625 C31.90529713 0.51742396 55.01396365 12.0034075 74.75 31.375 C75.575 32.17292969 76.4 32.97085938 77.25 33.79296875 C81.40633226 37.87207186 85.318907 42.09245816 89.109375 46.51171875 C91.53335709 49.26466984 94.12509926 51.81412123 96.75 54.375 C99.65221328 53.06229086 101.71712292 51.65601018 103.95703125 49.3984375 C104.54000977 48.81408936 105.12298828 48.22974121 105.72363281 47.62768555 C106.33045898 47.00804932 106.93728516 46.38841309 107.5625 45.75 C108.19124023 45.11553955 108.81998047 44.4810791 109.46777344 43.82739258 C112.58803206 40.65810132 115.62645654 37.45975881 118.5 34.0625 C133.68763498 16.3498736 157.20223947 3.05797876 180.54394531 0.53833008 C211.28954181 -1.73798733 237.27817663 4.95655158 261.1171875 24.9921875 C279.49163479 41.62188015 291.85576756 64.91183496 293.5859375 89.7109375 C294.16262455 102.59028169 294.63448132 114.93522379 290.75 127.375 C290.42128906 128.54933594 290.09257812 129.72367188 289.75390625 130.93359375 C285.38100018 145.47464127 278.00611177 158.15570556 267.75 169.375 C266.65365234 170.57576172 266.65365234 170.57576172 265.53515625 171.80078125 C260.42575409 177.14365346 254.96988492 181.40092791 248.75 185.375 C247.89277344 185.94992187 247.03554688 186.52484375 246.15234375 187.1171875 C226.13439682 199.78677416 200.99154561 204.60498533 177.7265625 200.05859375 C151.56603306 194.05059814 131.77790495 182.18764537 114.06640625 161.94140625 C110.74631932 158.26299628 107.19112164 154.84043208 103.62109375 151.40625 C101.75 149.375 101.75 149.375 101.75 147.375 C99.54833328 146.35222262 99.54833328 146.35222262 96.75 146.375 C94.57174224 148.26364498 92.88849969 149.9972589 91.0625 152.1875 C90.00845099 153.39362573 88.95243248 154.5980329 87.89453125 155.80078125 C87.36939941 156.40486816 86.84426758 157.00895508 86.30322266 157.63134766 C83.33144932 160.96746918 80.10685135 164.04099802 76.90625 167.15625 C74.70079351 169.34315556 74.70079351 169.34315556 72.82421875 171.859375 C59.53613338 187.97524501 34.3525733 198.39538249 14.0625 201.12890625 C1.30586511 202.07662795 -10.87342079 201.94627928 -23.25 198.375 C-24.4359375 198.04628906 -25.621875 197.71757812 -26.84375 197.37890625 C-52.64798443 189.54547794 -73.15845308 173.12393553 -86.19750977 149.43823242 C-89.6054787 142.97468421 -92.13795802 136.37113907 -94.25 129.375 C-94.641875 128.20324219 -95.03375 127.03148437 -95.4375 125.82421875 C-102.73838781 101.41187515 -98.26461654 74.6996872 -86.6953125 52.375 C-78.43757099 37.45778953 -66.67295072 24.49444417 -52.25 15.375 C-51.33605469 14.77816406 -50.42210937 14.18132812 -49.48046875 13.56640625 C-42.43874169 9.18300185 -35.25715236 6.26611759 -27.31494141 3.97705078 C-25.81410799 3.53947036 -24.32247215 3.0699539 -22.83740234 2.58154297 C-15.17947023 0.21153169 -7.98170011 -0.09185166 0 0 Z " fill="#FAFAFA" transform="translate(153.25,146.625)"/>
<path d="M0 0 C1.01610352 0.00418945 2.03220703 0.00837891 3.07910156 0.01269531 C11.042371 0.13177697 18.21913515 1.00167465 25.875 3.3125 C26.77476562 3.56773437 27.67453125 3.82296875 28.6015625 4.0859375 C41.60556932 8.26716683 53.30030656 15.66852513 62.875 25.3125 C64.18010034 26.59465578 65.48617428 27.87582095 66.79296875 29.15625 C77.79592263 40.00666522 77.79592263 40.00666522 82.26953125 45.21484375 C86.39431781 49.99358121 90.87816619 54.38670622 95.375 58.8125 C100.57002128 63.92545143 105.62004865 69.06252692 110.36523438 74.59765625 C112.86259057 77.43423935 115.66740795 79.92355494 118.46875 82.453125 C119.875 84.3125 119.875 84.3125 119.84765625 86.24609375 C116.5354497 93.28286992 109.46130825 98.84097389 103.60546875 103.7734375 C101.39549998 105.73896278 99.61159904 107.92467632 97.875 110.3125 C94.6510483 108.89710657 92.51833208 107.19835072 90.0625 104.6875 C89.43730469 104.05585938 88.81210938 103.42421875 88.16796875 102.7734375 C86.27734478 100.74431808 84.46171478 98.68250882 82.65234375 96.58203125 C78.71536148 92.05916032 74.51284666 87.83889171 70.25 83.625 C69.51265625 82.89216797 68.7753125 82.15933594 68.015625 81.40429688 C65.04761491 78.45490334 62.07515815 75.5101245 59.09765625 72.5703125 C56.96089153 70.3997501 54.94314024 68.16659291 52.9375 65.875 C51.25435726 64.01687708 49.56633772 62.16316664 47.875 60.3125 C47.12234863 59.47259521 47.12234863 59.47259521 46.35449219 58.61572266 C37.83859607 49.19459349 29.60475543 43.18788438 17.875 38.3125 C17.08230713 37.96018311 16.28961426 37.60786621 15.47290039 37.24487305 C5.03071222 33.49722559 -10.40592187 35.04861776 -20.3359375 39.69921875 C-34.06319861 47.63949723 -44.26684798 58.05571022 -48.796875 73.62109375 C-50.83081451 90.30424046 -49.64136221 106.38200772 -39.05859375 120.10546875 C-31.20333248 129.07157505 -20.04236647 137.30878963 -7.79956055 138.54785156 C3.94423526 139.15723565 14.37747514 139.09959704 24.875 133.3125 C25.62491211 132.90926514 26.37482422 132.50603027 27.14746094 132.09057617 C33.57840511 128.46899775 38.5300644 124.18105171 43.625 118.875 C44.69814453 117.78735352 44.69814453 117.78735352 45.79296875 116.67773438 C49.08892422 113.31223122 52.25640355 109.90208777 55.265625 106.27734375 C56.12671875 105.29894531 56.9878125 104.32054687 57.875 103.3125 C58.535 103.3125 59.195 103.3125 59.875 103.3125 C60.1225 102.69375 60.37 102.075 60.625 101.4375 C62.09547178 98.93769797 63.28903076 98.47933978 65.875 97.3125 C82.5532068 113.76498671 82.5532068 113.76498671 88.875 122.3125 C87.69744141 123.47265625 87.69744141 123.47265625 86.49609375 124.65625 C79.79525422 131.23097317 79.79525422 131.23097317 73.5 138.1875 C61.36546569 152.18440888 47.68866818 165.08385579 29.47705078 170.52954102 C27.87668622 171.01109188 26.28570774 171.52736349 24.71557617 172.09985352 C17.23888662 174.70587387 10.04881453 174.81294559 2.1875 174.75 C1.52103455 174.74629395 0.85456909 174.74258789 0.16790771 174.73876953 C-19.91748396 174.57947181 -37.88401655 168.73839468 -53.125 155.3125 C-53.92035156 154.67054688 -54.71570313 154.02859375 -55.53515625 153.3671875 C-72.72743888 138.9649971 -82.92314159 117.15035673 -85.37939453 95.02050781 C-86.96973393 72.55634066 -79.89898903 48.99075906 -65.3359375 31.77734375 C-64.24152344 30.55724609 -64.24152344 30.55724609 -63.125 29.3125 C-62.31289062 28.40628906 -61.50078125 27.50007813 -60.6640625 26.56640625 C-49.11793452 14.36001582 -35.31906553 6.65317736 -19.125 2.3125 C-17.93261719 1.96058594 -16.74023438 1.60867187 -15.51171875 1.24609375 C-10.36418973 -0.02347349 -5.27837101 -0.02966357 0 0 Z " fill="#5F5F5F" transform="translate(153.125,159.6875)"/>
<path d="M0 0 C8.18245811 6.23648669 16.24044518 13.30033729 21.7265625 22.078125 C22.67595703 23.54765625 22.67595703 23.54765625 23.64453125 25.046875 C27.64850046 31.59745877 30.71050689 38.11022883 33.1640625 45.390625 C33.41091797 46.11878418 33.65777344 46.84694336 33.91210938 47.59716797 C38.66177341 62.53966514 39.09514127 82.36498995 33.7265625 97.078125 C33.08847656 98.87443359 33.08847656 98.87443359 32.4375 100.70703125 C24.29174447 122.73105134 9.19242831 141.52242434 -12.46875 151.55859375 C-15.38742445 152.7812817 -18.31803032 153.94761824 -21.2734375 155.078125 C-22.40652344 155.57892578 -22.40652344 155.57892578 -23.5625 156.08984375 C-31.8384223 159.10685865 -39.83068893 159.41498574 -48.5859375 159.390625 C-49.73255859 159.40673828 -50.87917969 159.42285156 -52.06054688 159.43945312 C-59.89371598 159.44388616 -66.78199871 158.32855908 -74.2734375 156.078125 C-75.50835937 155.72492188 -76.74328125 155.37171875 -78.015625 155.0078125 C-93.73942712 149.71426316 -106.44312936 140.17118813 -117.09765625 127.5078125 C-120.18600273 124.05906652 -123.48324409 120.83329094 -126.7734375 117.578125 C-131.82075221 112.57494517 -136.7253857 107.54572826 -141.2734375 102.078125 C-142.41797871 100.74368233 -143.5637744 99.41031441 -144.7109375 98.078125 C-145.5565625 97.088125 -146.4021875 96.098125 -147.2734375 95.078125 C-142.92128463 90.0572016 -138.57944606 85.21584913 -133.5234375 80.890625 C-129.71050991 77.61190793 -126.9976134 74.29620381 -124.2734375 70.078125 C-123.12119722 71.00773922 -121.97684574 71.9471375 -120.8359375 72.890625 C-120.19785156 73.41269531 -119.55976563 73.93476563 -118.90234375 74.47265625 C-117.2734375 76.078125 -117.2734375 76.078125 -116.2734375 79.078125 C-115.2834375 79.408125 -114.2934375 79.738125 -113.2734375 80.078125 C-111.75024414 81.62475586 -111.75024414 81.62475586 -110.12109375 83.60546875 C-106.21907196 88.20446317 -102.01143166 92.41658407 -97.7109375 96.640625 C-89.59205671 104.61593584 -89.59205671 104.61593584 -86.16796875 108.83984375 C-79.45462809 116.83213347 -67.41670516 122.36239719 -57.14013672 123.265625 C-42.28610208 124.23193748 -28.7002542 122.52429571 -16.546875 113.13671875 C-6.93426393 104.43251595 0.9408764 92.38529436 1.86376953 79.10351562 C2.61689321 62.35288073 -0.80366986 50.66029583 -10.5234375 36.890625 C-20.55641056 26.62962983 -34.51476669 20.06587162 -48.8984375 19.828125 C-66.7424478 20.07015227 -80.16883489 28.7534387 -92.2734375 41.078125 C-96.35045672 45.38405121 -100.25303246 49.81477739 -104.0234375 54.390625 C-106.31645818 57.12951081 -108.71371186 59.59153437 -111.2734375 62.078125 C-114.17565078 60.76541586 -116.24056042 59.35913518 -118.48046875 57.1015625 C-119.06425293 56.51648926 -119.64803711 55.93141602 -120.24951172 55.32861328 C-120.85553223 54.70970215 -121.46155273 54.09079102 -122.0859375 53.453125 C-122.70742676 52.82519043 -123.32891602 52.19725586 -123.96923828 51.55029297 C-128.24199872 47.2058532 -132.39081821 42.77813783 -136.2734375 38.078125 C-132.18696537 33.21853652 -127.96227489 28.4993591 -123.65063477 23.83935547 C-121.25661186 21.25107104 -118.88694369 18.64964969 -116.57421875 15.98828125 C-104.77319319 2.51742136 -91.44393474 -6.47018388 -74.2734375 -11.921875 C-73.33371094 -12.22351563 -72.39398438 -12.52515625 -71.42578125 -12.8359375 C-47.16121431 -19.53608889 -20.64554827 -13.84686319 0 0 Z " fill="#A4A4A4" transform="translate(397.2734375,174.921875)"/>
<path d="M0 0 C4.49636671 2.92057581 8.28466948 6.66990059 12.12890625 10.3828125 C13.31226563 11.52363281 13.31226563 11.52363281 14.51953125 12.6875 C18.70983206 16.8065372 22.66381914 21.06063735 26.48828125 25.51953125 C28.91226334 28.27248234 31.50400551 30.82193373 34.12890625 33.3828125 C32.71296288 37.88808685 30.48364115 40.12684311 27.12890625 43.3828125 C25.42703858 45.14979627 23.72794641 46.91945634 22.03125 48.69140625 C20.55132397 50.21567029 19.06844593 51.73699468 17.58422852 53.25708008 C16.57930892 54.29206482 15.579853 55.33238512 14.58618164 56.37817383 C5.48590178 65.94064217 -4.1348756 73.33001227 -17.81079102 73.67529297 C-25.31453907 73.74212335 -31.40994274 73.63739456 -37.87109375 69.3828125 C-38.55300781 68.94710937 -39.23492187 68.51140625 -39.9375 68.0625 C-49.3307759 61.53889662 -55.19530686 53.6069097 -57.87109375 42.3828125 C-59.37616296 30.76606895 -57.83995452 20.82306798 -51.05859375 11.1328125 C-38.35299393 -4.70130184 -18.30870168 -9.67387369 0 0 Z " fill="#3D3D3D" transform="translate(173.87109375,212.6171875)"/>
<path d="M0 0 C9.510509 8.10522484 15.31308601 17.01106231 16.48828125 29.62109375 C16.78482929 40.99458343 12.76549612 51.49658472 5.35546875 60.1953125 C-4.34758587 69.18982764 -14.68234827 71.49521523 -27.48828125 71.24609375 C-42.93155974 70.55807697 -52.9643675 56.96071195 -63.19335938 46.73022461 C-64.90998885 45.01582774 -66.63453614 43.30964848 -68.359375 41.60351562 C-69.4536112 40.51220604 -70.54737969 39.42042723 -71.640625 38.328125 C-72.41383591 37.56569237 -72.41383591 37.56569237 -73.20266724 36.78785706 C-76.7578125 33.20935236 -76.7578125 33.20935236 -76.7578125 30.98046875 C-75.13622813 29.26990753 -73.45841218 27.61249702 -71.7578125 25.98046875 C-70.78080237 24.99012512 -69.80785926 23.99575587 -68.83862305 22.99780273 C-65.99688228 20.0847326 -63.14288487 17.18401396 -60.28442383 14.28735352 C-59.06009106 13.04286712 -57.83936723 11.79481973 -56.62231445 10.54321289 C-54.84762937 8.71963709 -53.06000337 6.90962432 -51.26953125 5.1015625 C-50.73591476 4.54730087 -50.20229828 3.99303925 -49.6525116 3.42198181 C-36.38171006 -9.85647397 -15.0246833 -11.00249471 0 0 Z " fill="#3C3C3C" transform="translate(370.7578125,215.01953125)"/>
<path d="M0 0 C3.67449215 0.5663214 5.23412806 1.92850531 7.71484375 4.640625 C8.40126953 5.38183594 9.08769531 6.12304688 9.79492188 6.88671875 C10.50197266 7.66660156 11.20902344 8.44648438 11.9375 9.25 C13.34182839 10.7766118 14.74676205 12.30266707 16.15234375 13.828125 C17.14210205 14.90803711 17.14210205 14.90803711 18.15185547 16.00976562 C20.37592315 18.40482504 22.66411233 20.71439563 25 23 C23.55575365 26.23861303 21.74227753 28.61969163 19.375 31.25 C18.74335938 31.95640625 18.11171875 32.6628125 17.4609375 33.390625 C16.97882813 33.92171875 16.49671875 34.4528125 16 35 C13.09778672 33.68729086 11.03287708 32.28101018 8.79296875 30.0234375 C8.20918457 29.43836426 7.62540039 28.85329102 7.02392578 28.25048828 C6.41790527 27.63157715 5.81188477 27.01266602 5.1875 26.375 C4.25526611 25.43309814 4.25526611 25.43309814 3.30419922 24.47216797 C-0.96856122 20.1277282 -5.11738071 15.70001283 -9 11 C-8.60167969 10.54109375 -8.20335937 10.0821875 -7.79296875 9.609375 C-5.08857938 6.47728415 -2.42008229 3.36122541 0 0 Z " fill="#5E5F60" transform="translate(270,202)"/>
<path d="M0 0 C3.91209308 1.59415503 6.37218086 4.13893332 9.3125 7.125 C9.79525391 7.61492432 10.27800781 8.10484863 10.77539062 8.60961914 C15.86476477 13.81365709 20.63071925 19.17429233 25 25 C22.03 27.97 19.06 30.94 16 34 C12.10928064 32.05464032 10.05718071 30.31481663 7.015625 27.28125 C5.61376953 25.88326172 5.61376953 25.88326172 4.18359375 24.45703125 C3.7026123 23.97186035 3.22163086 23.48668945 2.72607422 22.98681641 C1.24795152 21.49793661 -0.24059911 20.02008349 -1.73046875 18.54296875 C-2.65988281 17.61097656 -3.58929688 16.67898438 -4.546875 15.71875 C-5.40120117 14.86216797 -6.25552734 14.00558594 -7.13574219 13.12304688 C-9 11 -9 11 -9 9 C-7.625 7.375 -7.625 7.375 -6 6 C-5.34 6 -4.68 6 -4 6 C-3.71125 5.38125 -3.4225 4.7625 -3.125 4.125 C-2 2 -2 2 0 0 Z " fill="#2D2D2D" transform="translate(217,257)"/>
<path d="M0 0 C0.99 0.33 1.98 0.66 3 1 C3.99 1 4.98 1 6 1 C4.5484451 2.67257355 3.08855591 4.33791758 1.625 6 C0.81289063 6.928125 0.00078125 7.85625 -0.8359375 8.8125 C-1.55007813 9.534375 -2.26421875 10.25625 -3 11 C-3.66 11 -4.32 11 -5 11 C-5 10.34 -5 9.68 -5 9 C-5.66 9 -6.32 9 -7 9 C-5.73958325 5.21874975 -4.31129455 4.98677673 -1 3 C-0.67 2.01 -0.34 1.02 0 0 Z " fill="#4A4C4B" transform="translate(267,179)"/>
<path d="M0 0 C0 0.99 0 1.98 0 3 C-0.9075 3.4125 -1.815 3.825 -2.75 4.25 C-5.96707472 5.78149588 -5.96707472 5.78149588 -7.9375 7.9375 C-10.71480416 10.71480416 -13.48292447 12.24146224 -17 14 C-17.66 13.67 -18.32 13.34 -19 13 C-2.96774194 0 -2.96774194 0 0 0 Z " fill="#989898" transform="translate(125,53)"/>
<path d="M0 0 C-0.66 0.66 -1.32 1.32 -2 2 C-2 2.99 -2 3.98 -2 5 C-3.41702513 4.85769192 -4.8336096 4.71099254 -6.25 4.5625 C-7.43335938 4.44068359 -7.43335938 4.44068359 -8.640625 4.31640625 C-10.82364639 4.02365007 -12.8773182 3.57935581 -15 3 C-13.25531628 2.29911844 -11.50398839 1.61475991 -9.75 0.9375 C-8.77546875 0.55464844 -7.8009375 0.17179687 -6.796875 -0.22265625 C-3.95992605 -1.01113787 -2.70590448 -1.02437812 0 0 Z " fill="#9B9D9C" transform="translate(186,26)"/>
<path d="M0 0 C0.66 0.33 1.32 0.66 2 1 C1.3503125 1.62648438 0.700625 2.25296875 0.03125 2.8984375 C-1.22171875 4.12433594 -1.22171875 4.12433594 -2.5 5.375 C-3.3353125 6.18710937 -4.170625 6.99921875 -5.03125 7.8359375 C-7.22431286 9.7589659 -7.22431286 9.7589659 -7 12 C-7.66 12 -8.32 12 -9 12 C-8.67 12.99 -8.34 13.98 -8 15 C-8.66 15 -9.32 15 -10 15 C-10.83984375 13.359375 -10.83984375 13.359375 -11 11 C-9.24163592 8.8697315 -7.57575206 7.1050158 -5.5625 5.25 C-5.03333984 4.74339844 -4.50417969 4.23679687 -3.95898438 3.71484375 C-2.65022899 2.46504131 -1.32648041 1.23097382 0 0 Z M-16 16 C-14 17 -14 17 -14 17 Z " fill="#474747" transform="translate(238,305)"/>
<path d="M0 0 C1.98 0 3.96 0 6 0 C5.06725891 1.12894876 4.12859878 2.25300876 3.1875 3.375 C2.66542969 4.00148437 2.14335937 4.62796875 1.60546875 5.2734375 C0 7 0 7 -3 9 C-3 7.35 -3 5.7 -3 4 C-2.34 4 -1.68 4 -1 4 C-0.67 2.68 -0.34 1.36 0 0 Z " fill="#4A4B4B" transform="translate(276,170)"/>
<path d="M0 0 C2.31 0.33 4.62 0.66 7 1 C4.75043698 3.24956302 2.93676737 4.00510965 0 5.1875 C-0.886875 5.55230469 -1.77375 5.91710937 -2.6875 6.29296875 C-5 7 -5 7 -7 6 C-6.030625 5.38125 -5.06125 4.7625 -4.0625 4.125 C-0.97164638 2.34321154 -0.97164638 2.34321154 0 0 Z " fill="#8F8F8F" transform="translate(340,457)"/>
<path d="M0 0 C3.45195767 1.4258086 5.1014256 3.09746334 7.25 6.125 C7.77078125 6.84945313 8.2915625 7.57390625 8.828125 8.3203125 C9.40820312 9.15175781 9.40820312 9.15175781 10 10 C8.68 10.33 7.36 10.66 6 11 C5.67 9.68 5.34 8.36 5 7 C4.34 7 3.68 7 3 7 C1.61061923 5.03852126 0.2739589 3.03833424 -1 1 C-0.67 0.67 -0.34 0.34 0 0 Z " fill="#3D3D3D" transform="translate(266,308)"/>
<path d="M0 0 C1.9375 1.375 1.9375 1.375 2.6875 4 C2.77 4.78375 2.8525 5.5675 2.9375 6.375 C-0.0625 6.375 -0.0625 6.375 -2.25 4.5 C-4.0625 2.375 -4.0625 2.375 -4.0625 0.375 C-2.0625 -0.625 -2.0625 -0.625 0 0 Z " fill="#353535" transform="translate(212.0625,265.625)"/>
<path d="M0 0 C2 3 2 3 2 6 C-0.22189824 8.22189824 -2.08482708 8.92598892 -5 10 C-3.66511872 6.40608886 -2.03977277 3.24509304 0 0 Z " fill="#4D4D4D" transform="translate(124,222)"/>
<path d="M0 0 C0 3.16785869 -0.55555175 4.28103859 -2 7 C-2.33 7.99 -2.66 8.98 -3 10 C-4.66666667 10 -6.33333333 10 -8 10 C-6.34908222 5.70761377 -3.26245434 3.1206085 0 0 Z " fill="#494949" transform="translate(423,313)"/>
<path d="M0 0 C0.66 0.33 1.32 0.66 2 1 C0.59419724 2.65512248 -0.82506266 4.29882206 -2.25 5.9375 C-3.03890625 6.85402344 -3.8278125 7.77054687 -4.640625 8.71484375 C-6.91251033 10.91526249 -7.92319022 11.66832555 -11 12 C-11 11.34 -11 10.68 -11 10 C-9.35546875 8.37890625 -9.35546875 8.37890625 -7.1875 6.5625 C-4.68897282 4.45536324 -2.2757944 2.34758602 0 0 Z " fill="#A7A7A7" transform="translate(99,71)"/>
<path d="M0 0 C6.26418531 1.48362284 10.91513505 5.24162156 16 9 C12.80389448 9 11.58282374 8.45328458 8.8125 7 C8.09707031 6.62875 7.38164062 6.2575 6.64453125 5.875 C5.83048828 5.441875 5.83048828 5.441875 5 5 C5 4.34 5 3.68 5 3 C3.68 3 2.36 3 1 3 C0.67 2.01 0.34 1.02 0 0 Z " fill="#AFAFAF" transform="translate(369,48)"/>
<path d="M0 0 C-0.020625 0.94875 -0.04125 1.8975 -0.0625 2.875 C-0.22551826 5.90666283 -0.22551826 5.90666283 1 8 C-2.7952131 6.50902342 -4.61042731 4.24299151 -7 1 C-4 0 -4 0 0 0 Z " fill="#909090" transform="translate(95,411)"/>
<path d="M0 0 C1.32 0.66 2.64 1.32 4 2 C3.67 2.66 3.34 3.32 3 4 C1.8553125 4.2165625 1.8553125 4.2165625 0.6875 4.4375 C-2.26109198 5.05464716 -3.73296884 6.06882531 -6 8 C-6 5 -6 5 -4.6875 3.61328125 C-3.125 2.40885417 -1.5625 1.20442708 0 0 Z " fill="#3C3C3C" transform="translate(220,323)"/>
<path d="M0 0 C0.33 0.66 0.66 1.32 1 2 C1.598125 1.649375 2.19625 1.29875 2.8125 0.9375 C5 0 5 0 8 1 C5.03 3.475 5.03 3.475 2 6 C1.01 5.01 0.02 4.02 -1 3 C-0.67 2.01 -0.34 1.02 0 0 Z " fill="#5C5C5C" transform="translate(369,273)"/>
<path d="M0 0 C2.97 0.495 2.97 0.495 6 1 C5.34 2.65 4.68 4.3 4 6 C3.01 6 2.02 6 1 6 C-0.0625 4.125 -0.0625 4.125 -1 2 C-0.67 1.34 -0.34 0.68 0 0 Z " fill="#686A69" transform="translate(241,257)"/>
<path d="M0 0 C2.49415272 0.99766109 3.78740335 1.68616685 5.3125 3.9375 C6 6 6 6 5 9 C3.02 6.36 1.04 3.72 -1 1 C-0.67 0.67 -0.34 0.34 0 0 Z " fill="#646665" transform="translate(266,215)"/>
<path d="M0 0 C0.33 0 0.66 0 1 0 C1 4.62 1 9.24 1 14 C0.34 14 -0.32 14 -1 14 C-1.33 14.99 -1.66 15.98 -2 17 C-1.03644647 5.47835991 -1.03644647 5.47835991 0 0 Z " fill="#A6A6A6" transform="translate(22,202)"/>
<path d="M0 0 C0.99 0.33 1.98 0.66 3 1 C1.37660195 2.70884005 -0.29319053 4.37446717 -2 6 C-2.66 6 -3.32 6 -4 6 C-2.84826645 3.53199953 -1.95216435 1.95216435 0 0 Z M-5 6 C-4.01 6.99 -3.02 7.98 -2 9 C-3.65 9 -5.3 9 -7 9 C-6.34 8.01 -5.68 7.02 -5 6 Z " fill="#363636" transform="translate(250,292)"/>
<path d="M0 0 C0.66 0.33 1.32 0.66 2 1 C-0.31 3.31 -2.62 5.62 -5 8 C-5 5 -5 5 -2.5 2.3125 C-1.675 1.549375 -0.85 0.78625 0 0 Z M-7 8 C-6.67 8.99 -6.34 9.98 -6 11 C-6.99 11.66 -7.98 12.32 -9 13 C-9.33 12.01 -9.66 11.02 -10 10 C-9.01 9.34 -8.02 8.68 -7 8 Z " fill="#494949" transform="translate(304,236)"/>
<path d="M0 0 C2.62187494 1.04874998 3.79371361 1.64931313 5.25 4.125 C5.4975 4.74375 5.745 5.3625 6 6 C3.66666667 6 1.33333333 6 -1 6 C-0.67 4.02 -0.34 2.04 0 0 Z " fill="#363636" transform="translate(201,241)"/>
<path d="M0 0 C0 3.58912412 -0.66436554 4.10857029 -3 6.6875 C-3.556875 7.31011719 -4.11375 7.93273437 -4.6875 8.57421875 C-5.120625 9.04472656 -5.55375 9.51523437 -6 10 C-6.99 9.67 -7.98 9.34 -9 9 C-6.03 6.03 -3.06 3.06 0 0 Z " fill="#686868" transform="translate(199,276)"/>
<path d="M0 0 C-0.33 0.99 -0.66 1.98 -1 3 C-1.99 3.33 -2.98 3.66 -4 4 C-4.66 3.67 -5.32 3.34 -6 3 C-6 3.66 -6 4.32 -6 5 C-7.98 5.99 -7.98 5.99 -10 7 C-10.66 6.34 -11.32 5.68 -12 5 C-10.56705502 4.15885829 -9.12845595 3.32734313 -7.6875 2.5 C-6.88699219 2.0359375 -6.08648437 1.571875 -5.26171875 1.09375 C-3 0 -3 0 0 0 Z " fill="#A4A4A4" transform="translate(152,38)"/>
<path d="M0 0 C2.475 0.495 2.475 0.495 5 1 C5 1.66 5 2.32 5 3 C5.99 3.33 6.98 3.66 8 4 C7.67 5.32 7.34 6.64 7 8 C5.83035398 6.8572081 4.66435444 5.71068285 3.5 4.5625 C2.8503125 3.92441406 2.200625 3.28632813 1.53125 2.62890625 C0 1 0 1 0 0 Z " fill="#8F8F8F" transform="translate(80,404)"/>
<path d="M0 0 C0.66 1.32 1.32 2.64 2 4 C1.38125 4.7425 0.7625 5.485 0.125 6.25 C-1.60437281 8.48801188 -2.86106661 10.43739987 -4 13 C-4.33 12.34 -4.66 11.68 -5 11 C-4.00390625 8.3984375 -4.00390625 8.3984375 -2.5625 5.375 C-2.08941406 4.37210938 -1.61632813 3.36921875 -1.12890625 2.3359375 C-0.75636719 1.56507813 -0.38382813 0.79421875 0 0 Z " fill="#A3A3A3" transform="translate(42,144)"/>
<path d="M0 0 C0.99 0.33 1.98 0.66 3 1 C2.67 2.32 2.34 3.64 2 5 C1.38125 5.144375 0.7625 5.28875 0.125 5.4375 C-2.03258322 5.93152225 -2.03258322 5.93152225 -4 7 C-2.92598892 4.08482708 -2.22189824 2.22189824 0 0 Z " fill="#4B4B4B" transform="translate(429,305)"/>
<path d="M0 0 C3.07943151 2.05295434 3.79293121 2.65734795 5 6 C5.125 9.25 5.125 9.25 5 12 C3.20931427 9.3139714 2.33944209 7.3373411 1.375 4.3125 C1.11460938 3.50425781 0.85421875 2.69601562 0.5859375 1.86328125 C0.39257812 1.24839844 0.19921875 0.63351562 0 0 Z " fill="#8A8A8A" transform="translate(34,330)"/>
<path d="M0 0 C2.25 0.25 2.25 0.25 4 1 C3.67 1.99 3.34 2.98 3 4 C0.69 4 -1.62 4 -4 4 C-2.25 1.9375 -2.25 1.9375 0 0 Z " fill="#474747" transform="translate(387,339)"/>
<path d="M0 0 C0.99 0.33 1.98 0.66 3 1 C1.60667426 4.36720387 0.0210714 5.9859524 -3 8 C-3 7.01 -3 6.02 -3 5 C-2.34 4.67 -1.68 4.34 -1 4 C-0.34786708 1.97536745 -0.34786708 1.97536745 0 0 Z " fill="#3F3F3F" transform="translate(256,192)"/>
<path d="M0 0 C2.79872437 2.52788007 4.45773019 4.20411134 5 8 C2.525 7.01 2.525 7.01 0 6 C0 4.02 0 2.04 0 0 Z " fill="#9B9B9B" transform="translate(442,115)"/>
<path d="M0 0 C1.04449911 3.13349732 0.93423645 3.98968256 0 7 C-0.66 7 -1.32 7 -2 7 C-2.33 7.99 -2.66 8.98 -3 10 C-4 7 -4 7 -3.22265625 5.17578125 C-2.1484375 3.45052083 -1.07421875 1.72526042 0 0 Z " fill="#AAAAAA" transform="translate(396,268)"/>
</svg>
